<svg id="svg" version="1.1" xmlns="http://www.w3.org/2000/svg" style="display: block;" viewBox="0 0 465 543"><path d="M0 0 C153.45 0 306.9 0 465 0 C465 179.19 465 358.38 465 543 C311.55 543 158.1 543 0 543 C0 363.81 0 184.62 0 0 Z " transform="translate(0,0)" style="fill: #020203;"/><path d="M0 0 C153.45 0 306.9 0 465 0 C465 179.19 465 358.38 465 543 C311.55 543 158.1 543 0 543 C0 363.81 0 184.62 0 0 Z M192.86962891 33.29394531 C190.01092342 34.9935058 187.13932014 36.66859701 184.26171875 38.3359375 C164.28114005 49.91506004 144.40019805 61.66547366 124.69848633 73.71313477 C116.24413205 78.87381201 107.72594568 83.92345351 99.19848633 88.9621582 C91.50971064 93.50694726 83.84159425 98.08456328 76.1875 102.6875 C68.30814693 107.42402766 60.41528893 112.13625884 52.5 116.8125 C51.15143921 117.61179932 51.15143921 117.61179932 49.77563477 118.42724609 C45.5826743 120.90782754 41.37885815 123.36127477 37.1328125 125.75 C25.15562367 132.52186979 16.63998234 138.94412392 11 152 C8.46730863 161.68291151 9.10641966 172.21232391 14 181 C17.73473887 185.91340875 21.81949916 190.57560114 27 194 C27.66 194 28.32 194 29 194 C29 194.66 29 195.32 29 196 C28.34 196.185625 27.68 196.37125 27 196.5625 C17.91229362 200.91702597 13.3468905 208.18865209 9.6875 217.25 C7.41303382 229.65617917 9.96739343 238.36685185 15.75 249.3125 C18.99977569 253.19417652 22.91055773 256.04651391 27 259 C26.319375 259.515625 25.63875 260.03125 24.9375 260.5625 C17.26320455 266.93053239 10.89787162 273.82050674 9 284 C7.96715858 296.19091514 10.14825206 306.5991096 18.1171875 316.0859375 C20.84753808 318.8616051 23.7123718 320.92007196 27 323 C26.33613281 323.49628906 25.67226563 323.99257813 24.98828125 324.50390625 C16.51535618 331.0224924 11.61646842 336.54847808 9 347 C8.57847633 350.41535359 8.50893657 353.79151705 8.49609375 357.23046875 C8.48610855 358.18335281 8.47612335 359.13623688 8.46583557 360.11799622 C8.45073395 362.12394917 8.44360729 364.12997659 8.4440918 366.13598633 C8.43755309 369.16292355 8.38304992 372.18653524 8.32617188 375.21289062 C8.19589506 390.17802632 10.39452945 401.92503794 20.49609375 413.63671875 C28.27715199 420.98077528 37.94317661 426.07662029 47.26391602 431.19702148 C53.78084179 434.80371412 60.10582883 438.70419493 66.4375 442.625 C75.15132937 448.02041908 83.89051921 453.36580078 92.6875 458.625 C103.46496297 465.07098767 114.19878124 471.58570452 124.92041016 478.12402344 C131.20523251 481.9525136 137.49775143 485.76835125 143.78936768 489.58566284 C149.96128035 493.33044376 156.13153608 497.07782921 162.29296875 500.83984375 C172.80784082 507.25935044 183.33049607 513.65835158 193.99267578 519.83105469 C196.07472518 521.04351546 198.14460557 522.27531193 200.21484375 523.5078125 C214.35361711 531.83482148 227.25106562 535.41465138 243.875 532.0625 C269.51270155 524.61164882 293.92922425 505.10176236 316.70184326 491.22663879 C322.6435088 487.60661566 328.59165309 483.99730005 334.53994751 480.38818359 C338.58869844 477.93117599 342.6362799 475.47224211 346.68408203 473.01367188 C348.85670888 471.69429135 351.02955251 470.37526772 353.20263672 469.05664062 C367.08612413 460.6362764 367.08612413 460.6362764 380.875 452.0625 C387.61093443 447.82335429 394.42357037 443.7165444 401.25 439.625 C402.31718262 438.98433594 403.38436523 438.34367187 404.48388672 437.68359375 C409.5518002 434.64576665 414.62852358 431.62601297 419.734375 428.65234375 C434.60565564 419.95975669 446.76184946 411.72942595 452.35180664 394.57569885 C453.48078823 390.08951191 453.48798591 385.64884538 453.50390625 381.04296875 C453.51389145 380.0187532 453.52387665 378.99453766 453.53416443 377.93928528 C453.54927244 375.78370165 453.55639251 373.62804863 453.5559082 371.47241211 C453.56246223 368.20632193 453.61700382 364.94328724 453.67382812 361.67773438 C453.83645984 344.42737441 453.83645984 344.42737441 445.09204102 330.00268555 C443.46102484 328.51591679 441.8132653 327.25438216 440 326 C438.66497032 325.0022658 437.33123764 324.00278818 436 323 C436.50789063 322.6596875 437.01578125 322.319375 437.5390625 321.96875 C446.30279248 315.79803376 451.4942852 308.51555594 454 298 C455.24237697 288.42862641 453.65796178 279.01604834 447.90625 271.12890625 C444.3037903 266.9920817 440.93254294 263.51038364 436 261 C435.01 261 434.02 261 433 261 C433 260.34 433 259.68 433 259 C434.09828125 258.61328125 434.09828125 258.61328125 435.21875 258.21875 C442.88831595 254.85792897 447.70830289 248.74717286 451.125 241.296875 C454.24488861 233.10716741 454.51260263 222.27454968 452.09375 213.83984375 C450.90095318 211.36631958 449.61574883 209.21794394 448 207 C447.27876953 206.00419922 447.27876953 206.00419922 446.54296875 204.98828125 C443.48912213 201.14478564 440.26340424 198.42238878 436 196 C435.34 196 434.68 196 434 196 C434 195.34 434 194.68 434 194 C435.11375 193.61328125 435.11375 193.61328125 436.25 193.21875 C444.3537853 189.6272997 448.74103728 181.87466099 452 174 C454.71174513 165.86476461 454.04044385 154.9115049 450.30078125 147.2265625 C449.87152344 146.49179688 449.44226563 145.75703125 449 145 C448.56042969 144.24460937 448.12085938 143.48921875 447.66796875 142.7109375 C443.11292057 135.99944879 436.72699666 132.15884178 429.88818359 128.11621094 C428.05703764 127.03371814 426.24008936 125.93074688 424.42578125 124.8203125 C418.53568918 121.23120067 412.5842461 117.75325302 406.60400391 114.31689453 C397.80076071 109.25779653 389.10171571 104.04287606 380.4375 98.75 C370.00989521 92.38067362 359.49770335 86.19035173 348.89648438 80.11352539 C342.04772979 76.18733617 335.25018264 72.19171667 328.49609375 68.10546875 C324.51845115 65.70109838 320.50939743 63.35090785 316.5 61 C311.29394711 57.94662901 306.10491016 54.86827715 300.9375 51.75 C291.32217962 45.96084971 281.62987884 40.3027588 271.91357422 34.68505859 C270.05939313 33.61269745 268.20668505 32.53778233 266.35595703 31.45947266 C238.69286061 15.37855971 219.90292971 17.1697979 192.86962891 33.29394531 Z " transform="translate(0,0)" style="fill: #EFF9FE;"/><path d="M0 0 C4.25132153 2.28166164 8.3769678 4.74524484 12.5 7.25 C13.66471929 7.94931765 14.82984978 8.64795083 15.99536133 9.34594727 C25.1886839 14.86222171 34.33739257 20.45364203 43.49002075 26.03710938 C50.66691325 30.41444036 57.87274682 34.70376118 65.24731445 38.74072266 C71.8244461 42.37575528 78.15547692 46.41515524 84.47045898 50.48535156 C96.14139782 57.8750253 107.18945501 61.39903272 121 60 C132.61392211 57.34384045 143.28450796 50.00887541 153.18945312 43.57861328 C153.89650391 43.12212402 154.60355469 42.66563477 155.33203125 42.1953125 C156.28493042 41.56906982 156.28493042 41.56906982 157.25708008 40.93017578 C159 40 159 40 161.875 39.875 C168.4371007 42.23735625 176.08544222 44.99767807 180 51 C180.75853687 55.923053 180.71073238 60.3297789 178.75 64.9375 C178.1725 65.618125 177.595 66.29875 177 67 C176.401875 67.78375 175.80375 68.5675 175.1875 69.375 C173 71 173 71 170.125 70.9375 C167 70 167 70 164.28125 68.4765625 C157.54299458 65.44434756 149.02547654 65.76098969 141.9921875 67.92578125 C138.85802113 69.43928894 135.9577087 71.16358227 133 73 C131.6006847 73.82714629 130.19949687 74.65112951 128.796875 75.47265625 C125.47288929 77.43175546 122.16887873 79.42039701 118.875 81.4296875 C115.11019476 83.72616611 111.33173391 85.9971499 107.53881836 88.24671936 C104.98688135 89.76161659 102.43972493 91.28444688 99.89306641 92.80819702 C98.63943604 93.55604638 97.38391956 94.3007438 96.12646484 95.04214478 C94.34965694 96.09081041 92.58051676 97.1514415 90.8125 98.21484375 C89.78769531 98.82448975 88.76289063 99.43413574 87.70703125 100.06225586 C84.2779572 102.51685188 81.88772035 105.22455931 80 109 C79.0781296 117.83284068 79.0781296 117.83284068 81.875 126 C86.22760103 130.87539947 91.76366576 133.54786507 98.1875 134.4453125 C109.93893001 134.86104705 118.73122693 129.87592384 128.5625 123.9375 C129.51342529 123.37401855 130.46435059 122.81053711 131.4440918 122.22998047 C136.01731862 119.49776372 140.50841988 116.69812089 144.890625 113.66796875 C146.01682251 112.89755249 146.01682251 112.89755249 147.16577148 112.11157227 C148.5530942 111.15087534 149.92638267 110.16944045 151.28149414 109.16381836 C155.71156559 106.09491334 158.67673955 105.56181593 163.9987793 106.50732422 C170.25434074 108.04736606 174.76872238 111.12761972 179 116 C180.88081662 119.76163324 180.65251047 123.91418675 180 128 C178.07089762 131.50631637 175.79847934 134.26262347 172.046875 135.80078125 C169.43804522 136.05469407 168.26393836 135.40730883 166 134.125 C160.20374056 130.8872457 154.58774335 129.98987935 148 131 C143.05365044 132.82743724 138.5547233 135.37340783 134 138 C133.25331055 138.42941895 132.50662109 138.85883789 131.73730469 139.30126953 C126.25327281 142.47594191 120.81388747 145.72323203 115.37890625 148.98095703 C111.60312516 151.23714992 107.81812602 153.47734451 104.03125 155.71484375 C86.92350111 165.78914949 86.92350111 165.78914949 70.02978516 176.21557617 C64.02630138 180.01408175 57.94780271 183.6876793 51.87075806 187.36672974 C50.01803274 188.4890761 48.16639373 189.61319039 46.31518555 190.73803711 C45.41803581 191.28316704 45.41803581 191.28316704 44.50276184 191.83930969 C43.31750745 192.55955812 42.13227566 193.27984374 40.94706726 194.00016785 C37.57707111 196.04692949 34.19939815 198.08028093 30.81640625 200.10546875 C29.39812724 200.96563446 27.98012731 201.82626065 26.5625 202.6875 C25.94955078 203.0484375 25.33660156 203.409375 24.70507812 203.78125 C20.45805561 206.38505025 17.64213073 208.81285188 15 213 C15.02863572 215.92370717 15.23273675 218.45117339 15.625 221.3125 C16.16951263 228.58881371 16.16951263 228.58881371 13.66259766 231.61376953 C9.54878226 234.90644101 4.83171529 236.98406678 0 239 C-1.15371094 239.55558594 -2.30742187 240.11117187 -3.49609375 240.68359375 C-11.14938738 243.55891142 -20.55257739 243.71263042 -28.125 240.41796875 C-31.91584393 238.5227821 -35.45218206 236.31541802 -39 234 C-39.96808594 233.38382813 -40.93617188 232.76765625 -41.93359375 232.1328125 C-43.98733522 230.79355519 -46.00627773 229.42640293 -48 228 C-47.67902344 227.43925781 -47.35804688 226.87851562 -47.02734375 226.30078125 C-45.89609713 223.76730499 -45.63651273 221.95209333 -45.5625 219.1875 C-45.52253906 218.37667969 -45.48257813 217.56585938 -45.44140625 216.73046875 C-46.41442471 211.97424564 -48.99714584 208.53752038 -52.8347168 205.59155273 C-55.03807195 204.18764735 -57.28044486 202.89699889 -59.5625 201.625 C-61.36672741 200.58088069 -63.17006247 199.53521838 -64.97265625 198.48828125 C-65.94348145 197.92963379 -66.91430664 197.37098633 -67.91455078 196.79541016 C-72.89674964 193.89628922 -77.81408354 190.89082345 -82.73464966 187.88879395 C-84.51647814 186.80245365 -86.29983989 185.71867648 -88.08374023 184.63574219 C-93.50609147 181.34398416 -98.92545792 178.0474611 -104.33740234 174.73861694 C-117.46681619 166.71238604 -130.65549546 158.83348357 -144.015625 151.19555664 C-150.75634353 147.33124739 -157.40886881 143.3642267 -163.93261719 139.14282227 C-172.71261379 133.5034017 -180.36237199 129.7860965 -191 131 C-193.22634708 131.83582996 -195.16872622 132.81505237 -197.2109375 134.02734375 C-199.19276918 135.10480246 -200.75552147 135.72834684 -203 136 C-207.11593623 133.20116336 -209.83924673 130.99123906 -211 126 C-211.44129462 121.36640652 -211.48071289 119.02151488 -209.5 114.8125 C-204.72644128 109.44224644 -199.73531317 106.42840392 -192.51342773 105.78344727 C-187.46307531 106.21857719 -183.53856086 109.17664012 -179.375 111.875 C-178.41223145 112.47127197 -177.44946289 113.06754395 -176.45751953 113.68188477 C-174.5230852 114.88118241 -172.59438915 116.08979091 -170.671875 117.30810547 C-164.85365451 120.99234049 -158.93788728 124.51289167 -153 128 C-151.96875 128.62132812 -150.9375 129.24265625 -149.875 129.8828125 C-142.58173351 133.96628202 -136.32508517 135.38751419 -128 134 C-120.32616888 131.52220984 -115.57527028 127.66001289 -111.6875 120.625 C-110.24486418 115.11675416 -110.25948959 111.57928759 -112.6484375 106.484375 C-114.8434915 102.86132983 -117.25883275 101.18087729 -121 99.125 C-122.33207792 98.37086702 -123.66267239 97.61411076 -124.9921875 96.85546875 C-125.76143555 96.42153809 -126.53068359 95.98760742 -127.32324219 95.54052734 C-132.36479079 92.63901588 -137.31784194 89.58836693 -142.28369141 86.55975342 C-144.07457716 85.46823206 -145.8670461 84.37936651 -147.66015625 83.29150391 C-148.23521912 82.94238953 -148.81028198 82.59327515 -149.402771 82.23358154 C-150.55240699 81.53585045 -151.70234825 80.83862208 -152.8526001 80.14190674 C-155.76739817 78.3726933 -158.66798593 76.58471716 -161.54980469 74.76220703 C-162.12777802 74.39909927 -162.70575134 74.03599152 -163.30123901 73.66188049 C-164.88978195 72.66210675 -166.47409536 71.65562165 -168.05810547 70.64868164 C-173.60481731 67.54022147 -178.63987234 66.61388785 -184.9375 66.625 C-185.64753174 66.62298584 -186.35756348 66.62097168 -187.08911133 66.61889648 C-192.65636608 66.72755407 -195.52336377 67.91609504 -200 71 C-203.0405726 71.22248092 -204.27562002 70.5691557 -206.640625 68.7109375 C-210.01890541 65.38001616 -211.43024764 62.71253942 -211.625 57.9375 C-211.28292741 53.22687544 -210.33444673 50.49322991 -207 47 C-202.09486298 43.43033693 -197.21915274 40.03737472 -191 40 C-187.75081493 41.33312718 -184.84808887 43.14226382 -181.875 45 C-181.03549805 45.5045874 -180.19599609 46.0091748 -179.33105469 46.52905273 C-176.87823808 48.00493595 -174.43814492 49.50004003 -172 51 C-169.75653839 52.36585559 -167.50609367 53.71741124 -165.25 55.0625 C-164.38890625 55.58972656 -163.5278125 56.11695313 -162.640625 56.66015625 C-156.95953223 59.54272255 -151.57053326 60.31254414 -145.25 60.375 C-143.95578125 60.40335937 -142.6615625 60.43171875 -141.328125 60.4609375 C-131.8689577 59.90523648 -123.51733897 54.89435159 -115.625 50.0625 C-114.68309814 49.49619873 -113.74119629 48.92989746 -112.77075195 48.34643555 C-105.31696945 43.84933045 -97.91940395 39.2594524 -90.5300293 34.6574707 C-84.72146263 31.04444763 -78.86522995 27.53192519 -72.95068359 24.09570312 C-68.33537844 21.40317339 -63.7647227 18.64277934 -59.2109375 15.84765625 C-58.60506302 15.47657745 -57.99918854 15.10549866 -57.37495422 14.72317505 C-53.70872072 12.47804355 -53.70872072 12.47804355 -50.04977417 10.22106934 C-19.00422867 -9.0001346 -19.00422867 -9.0001346 0 0 Z " transform="translate(247,170)" style="fill: #F4FAFB;"/><path d="M0 0 C6.67662048 3.52039989 12.96431343 7.51567182 19.28051758 11.63354492 C36.48332735 22.84350365 54.09567288 33.32207271 71.83984375 43.64672852 C78.87492867 47.74560612 85.87369853 51.89940028 92.84716797 56.10205078 C102.31113617 61.80132594 111.8169605 67.42997547 121.3203125 73.06323242 C132.76279246 79.84786096 144.16829848 86.6929539 155.56689453 93.55102539 C158.0372687 95.0349745 160.51074308 96.51367601 162.984375 97.9921875 C166.23613412 99.93647369 169.47436434 101.90059868 172.703125 103.8828125 C185.90389277 111.93549642 197.29011028 116.16664566 213 114 C227.29461157 110.1782282 240.19875092 100.59738184 252.75732422 92.96875 C256.46275971 90.71904124 260.17890274 88.4876886 263.89746094 86.25976562 C265.50959381 85.29365931 267.12092094 84.32620722 268.73144531 83.35742188 C274.63407932 79.80771968 280.56384256 76.30577447 286.5 72.8125 C296.17608666 67.11311217 305.77947152 61.2978818 315.37133789 55.45849609 C323.37497849 50.58701917 331.3983186 45.75020333 339.4375 40.9375 C346.66638503 36.60921416 353.8758474 32.25651273 361.0390625 27.8203125 C365.14323449 25.29716719 369.27863686 22.82726519 373.41430664 20.35620117 C377.48664797 17.91930456 381.53054468 15.44093763 385.5625 12.9375 C387.12871094 11.98037109 387.12871094 11.98037109 388.7265625 11.00390625 C390.43245447 9.95960723 392.13718718 8.913149 393.82714844 7.84326172 C395.6861155 6.66803604 397.55981927 5.52002439 399.4375 4.375 C400.54996094 3.68148438 401.66242188 2.98796875 402.80859375 2.2734375 C406 1 406 1 409.19140625 1.640625 C416.69964482 5.27465424 421.55272876 10.94481461 424.43518066 18.84295654 C426.36991467 26.23170029 425.7900988 34.29097493 425.67236328 41.86376953 C425.62499964 45.12502491 425.631291 48.38301669 425.64453125 51.64453125 C425.63337946 53.7448109 425.61916079 55.84507697 425.6015625 57.9453125 C425.60338531 58.9059964 425.60520813 59.8666803 425.60708618 60.85647583 C425.38067779 71.80050491 420.71787583 83.07637814 413.05273438 91.01733398 C407.76115724 95.74135456 402.35886676 99.46319802 396.1875 102.9375 C394.2437533 104.05940081 392.30109884 105.18319551 390.359375 106.30859375 C389.33263672 106.90140137 388.30589844 107.49420898 387.24804688 108.10498047 C381.43391626 111.49713935 375.68695128 114.99981206 369.9375 118.5 C369.33980804 118.86334442 368.74211609 119.22668884 368.12631226 119.6010437 C359.72294354 124.70985756 351.34958687 129.86568179 342.99609375 135.05566406 C332.85757108 141.34573375 322.64799311 147.51901193 312.44325256 153.70077515 C308.24884957 156.24192189 304.0572222 158.78759523 299.8671875 161.3359375 C280.29477166 173.2384539 260.7050509 185.11079718 240.9375 196.6875 C239.95620117 197.26395264 238.97490234 197.84040527 237.96386719 198.43432617 C222.4224994 207.49922435 207.36302496 213.40930467 189 208.8125 C169.59490094 202.02189425 151.85461395 188.77529269 134.36572266 178.06054688 C129.31285504 174.96710406 124.24979215 171.89048518 119.1875 168.8125 C113.56986368 165.39349198 107.9536726 161.97213119 102.33984375 158.546875 C92.47905035 152.53331067 82.59959741 146.553666 72.6875 140.625 C62.92082678 134.78325864 53.2224254 128.83723832 43.54223633 122.85351562 C36.5321935 118.53052357 29.47637946 114.29603584 22.375 110.125 C19.73837027 108.57007059 17.10249701 107.01387402 14.46728516 105.45654297 C12.85125384 104.50253121 11.2337905 103.55094006 9.61474609 102.60205078 C-3.45389422 94.91019064 -10.73637893 88.05921139 -17 74 C-17.34909424 73.32243652 -17.69818848 72.64487305 -18.05786133 71.94677734 C-19.43288191 67.64605217 -19.32515925 63.50945393 -19.3359375 59.01953125 C-19.3425943 58.0515007 -19.3492511 57.08347015 -19.35610962 56.08610535 C-19.36621967 54.03943781 -19.37092715 51.99273741 -19.37060547 49.94604492 C-19.37496085 46.84041795 -19.41124911 43.73623348 -19.44921875 40.63085938 C-19.45509107 38.63542148 -19.45905768 36.6399769 -19.4609375 34.64453125 C-19.47530853 33.72750931 -19.48967957 32.81048737 -19.50448608 31.86567688 C-19.4361489 22.04765882 -15.93000935 13.06589189 -9 6 C-6.11419193 3.78959381 -3.1340736 1.83865651 0 0 Z " transform="translate(28,323)" style="fill: #020303;"/><path d="M0 0 C2.51763701 0.03896343 4.99024922 0.14396405 7.5 0.3125 C8.22380859 0.35882568 8.94761719 0.40515137 9.69335938 0.45288086 C14.95527939 0.83033058 19.8946801 1.6325036 25 3 C24.50628906 3.72445312 24.01257812 4.44890625 23.50390625 5.1953125 C22.54291016 6.64550781 22.54291016 6.64550781 21.5625 8.125 C20.92441406 9.07632813 20.28632812 10.02765625 19.62890625 11.0078125 C16.2191327 17.27132938 16.51917451 24.16386042 18 31 C19.71878125 34.42423862 21.87083812 36.46513385 25.375 38.125 C28.2078744 38.22140265 28.2078744 38.22140265 30.8125 36.0625 C36.39608878 32.540544 44.66044096 32.8887897 51 34 C58.97420766 36.54520273 66.12564325 41.46703476 73.25 45.75 C74.39947814 46.43533452 75.54921674 47.1202324 76.69921875 47.8046875 C83.5405819 51.88445509 90.33545915 56.03626884 97.11181641 60.22314453 C99.46145133 61.66867648 101.82076583 63.09331204 104.19140625 64.50390625 C105.30386719 65.18324219 106.41632813 65.86257813 107.5625 66.5625 C108.13806641 66.89701172 108.71363281 67.23152344 109.30664062 67.57617188 C113.89759149 70.42372368 115.75647213 73.22241547 118 78 C118.80023519 84.30185211 117.66818452 88.78902023 114 94 C108.37851364 100.1641546 102.33347501 103.08578912 94.0625 103.6875 C80.10878908 103.35107299 66.91114756 92.79776936 55.63671875 85.46240234 C53.02091977 83.76600312 50.3866444 82.1012701 47.75 80.4375 C46.92209961 79.88803711 46.09419922 79.33857422 45.24121094 78.77246094 C40.22756615 75.64168714 36.83152234 74.31459078 30.9375 75.44750977 C26.01017867 76.85256624 22.33197376 79.45990534 19 83.3125 C17.1234965 88.35560315 17.39736246 92.40301051 19.25 97.3125 C20.99154203 99.98701098 22.16706 101.54060667 25 103 C27.94194222 102.52880597 30.08568262 101.44488202 32.625 99.9375 C38.14968777 97.14446341 43.2952986 97.09142038 49.26171875 98.5546875 C58.06278756 101.69258979 66.04926248 107.17495537 74 112 C76.24933568 113.35526984 78.49932185 114.70946074 80.75 116.0625 C81.32886963 116.41175537 81.90773926 116.76101074 82.50415039 117.12084961 C86.86555807 119.74393834 91.25233508 122.3222975 95.6484375 124.88671875 C107.71449962 131.9270168 119.7469283 138.99206328 131.59570312 146.39526367 C137.399018 150.02006323 143.24749793 153.55945866 149.125 157.0625 C151.58402293 158.53723191 154.04138375 160.01467028 156.49755859 161.49414062 C158.20966721 162.52441243 159.92362681 163.55161283 161.63916016 164.57617188 C164.24790144 166.14017233 166.84374164 167.7238042 169.4375 169.3125 C170.22463379 169.77986572 171.01176758 170.24723145 171.82275391 170.72875977 C176.68459901 173.73940877 180.40264783 176.81056107 183 182 C183.55859375 184.73046875 183.55859375 184.73046875 183.4375 187.1875 C183.40462891 188.41533203 183.40462891 188.41533203 183.37109375 189.66796875 C182.98053661 192.12231203 182.22857622 193.85369215 181 196 C185.35378807 198.6530896 189.72195432 201.27704885 194.11767578 203.86010742 C195.45114218 204.66762423 196.76491724 205.50807447 198.06347656 206.37060547 C204.51541248 210.61566627 213.598154 210.16651 221 209 C225.38961979 207.52040811 229.11177229 205.49665148 233 203 C234.20849609 202.25169922 234.20849609 202.25169922 235.44140625 201.48828125 C237.29695454 200.32980834 239.14887288 199.16552448 241 198 C241.66 198 242.32 198 243 198 C242.835 197.236875 242.67 196.47375 242.5 195.6875 C242.08875106 192.65453904 241.70377096 189.67731922 241.5 186.625 C241.4278125 185.75101563 241.355625 184.87703125 241.28125 183.9765625 C242.92961704 177.15017289 248.29552798 173.25105413 254.04492188 169.66146851 C257.37578693 167.65996479 260.74773194 165.73428336 264.125 163.8125 C266.30685972 162.54851974 268.48562222 161.27930508 270.66442871 160.0100708 C272.1075171 159.17008774 273.55160459 158.33181869 274.9967041 157.49530029 C280.64595065 154.2235884 286.21762734 150.84093746 291.75 147.375 C309.48000754 136.32062763 327.34748746 125.49951539 345.375 114.9375 C345.96112061 114.59400513 346.54724121 114.25051025 347.15112305 113.89660645 C351.09481282 111.58744667 355.04561184 109.29078283 359 107 C359.62813599 106.63529602 360.25627197 106.27059204 360.90344238 105.89483643 C362.82187449 104.78225612 364.74261613 103.67377114 366.6640625 102.56640625 C367.80568848 101.90713135 368.94731445 101.24785645 370.12353516 100.56860352 C375.97852333 97.3757416 382.01368037 97.03323902 388.48046875 98.6015625 C390.68763718 99.33358821 392.84386836 100.12990751 395 101 C396.010625 101.391875 397.02125 101.78375 398.0625 102.1875 C398.701875 102.455625 399.34125 102.72375 400 103 C402.90802461 100.78071806 404.95312762 99.07030857 407 96 C407.58047611 90.96351607 407.75386271 85.40618034 405 81 C402.1473965 79.40405003 399.13642964 78.1414891 396.125 76.875 C395.30257813 76.52179688 394.48015625 76.16859375 393.6328125 75.8046875 C389.7604949 74.62116016 386.83304569 74.11008663 383.06591797 75.93896484 C380.78490886 77.30884018 378.58004295 78.7609394 376.375 80.25 C374.68743939 81.35086379 372.9985935 82.44975936 371.30859375 83.546875 C370.43831543 84.11599609 369.56803711 84.68511719 368.67138672 85.27148438 C364.30839381 88.09455052 359.8820854 90.80779333 355.4375 93.5 C354.6419873 93.99145508 353.84647461 94.48291016 353.02685547 94.98925781 C343.30256862 100.86962465 334.54733939 104.60104215 323 103 C316.77201446 101.1410277 311.64647668 97.8943089 308 92.4453125 C305.94437219 87.41866011 306.19260158 82.2929452 307 77 C310.03157816 70.60000167 315.47131696 67.17725176 321.4453125 63.671875 C323.04246094 62.73033569 323.04246094 62.73033569 324.671875 61.76977539 C325.82285581 61.09641289 326.97389897 60.42315697 328.125 59.75 C329.31532548 59.05042526 330.50542608 58.35046776 331.6953125 57.65014648 C333.55135412 56.55786311 335.40758874 55.46592086 337.26470947 54.37547302 C341.74675944 51.74285348 346.21606871 49.08951332 350.6796875 46.42578125 C351.91907763 45.68712339 353.15849775 44.94851586 354.39794922 44.20996094 C356.19094344 43.14153494 357.98348064 42.07238559 359.7744751 41.00061035 C361.43140433 40.00948104 363.09065055 39.02222827 364.75 38.03515625 C365.69359375 37.4719165 366.6371875 36.90867676 367.609375 36.32836914 C374.05505729 32.74677627 381.83554096 33.44997263 389 34 C391.97510403 35.04128641 394.26164366 36.39831988 397 38 C400.48001814 38 401.58237394 37.34802172 404.25 35.125 C407.73046151 30.89872531 407.21676758 26.38421996 407.25 21.1875 C407.270625 20.39279297 407.29125 19.59808594 407.3125 18.77929688 C407.34561839 13.77427972 406.82529409 10.31055383 404 6 C403.01 5.34 402.02 4.68 401 4 C401 3.34 401 2.68 401 2 C405.04068739 1.76679718 409.07964201 1.6252987 413.125 1.5 C414.26710938 1.43296875 415.40921875 1.3659375 416.5859375 1.296875 C424.86807105 1.10426724 424.86807105 1.10426724 428.07324219 3.640625 C429.65666105 5.68896259 430.85844316 7.68007964 432 10 C432.44601562 10.81210938 432.89203125 11.62421875 433.3515625 12.4609375 C435.8852912 22.38216434 435.17157246 35.13031985 430 44 C426.11583916 49.33865511 421.81048171 53.81806954 416 57 C415.34 57 414.68 57 414 57 C414 57.66 414 58.32 414 59 C414.72058594 59.08121094 415.44117188 59.16242188 416.18359375 59.24609375 C422.08799341 60.82660573 427.06069788 66.18154759 430.46484375 71.12890625 C431.46522835 73.05794975 432.27014072 74.95469666 433 77 C433.4125 78.0725 433.825 79.145 434.25 80.25 C436.53567865 91.67839326 434.75882392 101.64962378 428.37890625 111.50390625 C420.87426803 120.78383523 409.40357693 126.28774899 399.16137695 132.06420898 C394.30407667 134.80396581 389.55833085 137.69686399 384.8203125 140.63671875 C380.04365966 143.59917453 375.23969318 146.51669613 370.4375 149.4375 C368.98005371 150.32405273 368.98005371 150.32405273 367.49316406 151.22851562 C364.32902351 153.15275105 361.1645103 155.07637272 358 157 C356.8473162 157.70098523 355.69464721 158.4019948 354.54199219 159.10302734 C334.67195842 171.18699988 314.75982774 183.19439471 294.7454834 195.03826904 C287.37856999 199.39781139 280.02305525 203.77536404 272.6875 208.1875 C270.29478551 209.62396001 267.90168257 211.0597693 265.50830078 212.49511719 C263.7508887 213.54949602 261.99410559 214.60492359 260.23779297 215.66113281 C238.3123599 228.82909006 238.3123599 228.82909006 227 234 C226.23171875 234.3815625 225.4634375 234.763125 224.671875 235.15625 C220.86740986 236.35766004 217.27893092 236.32906822 213.3125 236.3125 C212.56033203 236.32861328 211.80816406 236.34472656 211.03320312 236.36132812 C199.53682604 236.37111228 190.88004854 231.58932723 181.1875 225.8125 C179.55844727 224.86020508 179.55844727 224.86020508 177.89648438 223.88867188 C171.34962975 220.04603732 164.87972629 216.08611219 158.42211914 212.09594727 C152.03870018 208.17044941 145.57441205 204.37813283 139.125 200.5625 C136.41892875 198.96021243 133.71323833 197.35728335 131.0078125 195.75390625 C130.34379929 195.36040985 129.67978607 194.96691345 128.99565125 194.56149292 C121.98093735 190.40122014 114.98893426 186.20339398 108 182 C107.11054687 181.46511963 106.22109375 180.93023926 105.3046875 180.37915039 C104.13099609 179.67326782 104.13099609 179.67326782 102.93359375 178.953125 C94.34968302 173.79063593 85.74983864 168.65634901 77.125 163.5625 C76.21540527 163.02488037 75.30581055 162.48726074 74.36865234 161.93334961 C69.66797352 159.15725708 64.96145119 156.39171615 60.24609375 153.640625 C50.72572078 148.07345498 41.35347365 142.39981084 32.234375 136.1953125 C29.36966225 134.25090602 26.48363057 132.3581156 23.5625 130.5 C22.70269531 129.95214844 21.84289062 129.40429688 20.95703125 128.83984375 C18.65570066 127.40797227 16.34261639 126.01121463 14.01171875 124.62890625 C1.78294291 117.31386721 -5.33057791 111.09185399 -9.58203125 97.08203125 C-11.37435369 88.15392042 -10.43300211 78.96997188 -6 71 C-1.91395854 65.60276614 2.65489892 61.13844687 8 57 C7.41992188 56.61070312 6.83984375 56.22140625 6.2421875 55.8203125 C0.01618713 51.36142775 -3.61316791 46.83879556 -7 40 C-7.3403125 39.35289062 -7.680625 38.70578125 -8.03125 38.0390625 C-11.78442628 29.80292567 -10.91462381 19.68870081 -8.0625 11.296875 C-6.10157019 7.05780615 -3.30191472 3.30191472 0 0 Z " transform="translate(19,202)" style="fill: #020203;"/><path d="M0 0 C1.051875 0.5775 2.10375 1.155 3.1875 1.75 C7.98416859 3.88185271 12.09622968 3.47428806 16.9375 1.75 C19.73456261 0.62579599 22.30741176 -0.72112144 24.9375 -2.1875 C29.76276719 -4.62510264 34.77576829 -5.05178899 39.96606445 -3.35864258 C41.93903319 -2.43450205 43.80530457 -1.40970839 45.6875 -0.3125 C46.39664551 0.08179199 47.10579102 0.47608398 47.83642578 0.88232422 C50.23896834 2.2306952 52.62023618 3.61184291 55 5 C55.90669434 5.5244873 56.81338867 6.04897461 57.74755859 6.58935547 C63.40148866 9.86695409 69.02300451 13.19470023 74.62011719 16.56835938 C76.61810036 17.77026472 78.6233743 18.95805371 80.6328125 20.140625 C88.36769003 24.81948824 93.32300961 29.66030699 97 38 C97.64685509 42.79759916 97.55531274 47.60047101 97.5625 52.4375 C97.61760742 54.38366211 97.61760742 54.38366211 97.67382812 56.36914062 C97.72289256 67.01612297 97.72289256 67.01612297 94.1171875 71.3203125 C90.51328592 74.77335824 87.51813386 75.8343854 82.5625 76.375 C78.19592007 75.91536001 76.2792926 74.90664572 73 72 C70.46252111 67.432538 69.86952777 64.14640453 70 59 C61.24320684 63.85614203 52.59213176 68.81169263 44.08203125 74.08984375 C16.82975575 90.98003731 16.82975575 90.98003731 1.07275391 87.5847168 C-6.66582691 85.36639533 -13.40326156 80.92213081 -20.25 76.8125 C-21.49564206 76.07410728 -22.74173382 75.33647264 -23.98828125 74.59960938 C-31.20113936 70.32481969 -38.35426682 65.95694636 -45.47949219 61.5378418 C-47.87798852 60.02596866 -47.87798852 60.02596866 -50 59 C-49.938125 60.216875 -49.87625 61.43375 -49.8125 62.6875 C-49.8334172 66.64085137 -50.40377355 68.88452826 -53 72 C-57.07380487 75.5888281 -60.4277058 76.76227102 -65.75 76.51953125 C-69.75423199 75.59494296 -72.50139341 73.19074137 -75 70 C-77.74464487 64.21057371 -77.40595133 58.54571314 -77.4375 52.25 C-77.47037109 51.10789063 -77.50324219 49.96578125 -77.53710938 48.7890625 C-77.59134596 40.20982084 -76.16407208 34.55084868 -70.32568359 28.17016602 C-64.73635929 22.9306328 -58.09822269 19.11674542 -51.5625 15.1875 C-50.40715813 14.48611033 -49.25213152 13.78420109 -48.09741211 13.08178711 C-44.73865383 11.04273987 -41.37029612 9.01992535 -38 7 C-37.07058594 6.44151367 -36.14117187 5.88302734 -35.18359375 5.30761719 C-32.81346895 3.88644693 -30.43975515 2.47170446 -28.0625 1.0625 C-27.37808838 0.65604248 -26.69367676 0.24958496 -25.98852539 -0.16918945 C-16.43024554 -5.77087212 -9.6305185 -4.53105339 0 0 Z " transform="translate(221,197)" style="fill: #020202;"/><path d="M0 0 C5.70689187 2.02680387 10.77903727 4.95930266 16 8 C17.78882722 9.0173409 19.57790387 10.0342433 21.3671875 11.05078125 C32.84819103 17.63035035 44.15558715 24.49851624 55.45181274 31.38864136 C64.39808493 36.84418836 73.39156148 42.21135617 82.4375 47.5 C83.03162689 47.84736206 83.62575378 48.19472412 84.23788452 48.5526123 C87.2538668 50.31512696 90.2709063 52.07582237 93.28857422 53.83544922 C99.07250709 57.20811502 104.85287555 60.58686103 110.63113403 63.96923828 C112.42708544 65.01984595 114.22410647 66.06860405 116.02124023 67.1171875 C122.6630156 71.00309315 129.23740034 74.98198124 135.78173828 79.02954102 C141.03632518 82.2467896 146.35956531 85.34375261 151.6875 88.4375 C152.75677734 89.06076172 153.82605469 89.68402344 154.92773438 90.32617188 C161.56912394 94.53906913 161.56912394 94.53906913 169 96.1875 C176.16105938 96.92670613 182.41899169 100.80357959 187.0625 106.25 C190.35053535 110.91688888 190.62918305 114.37548481 190 120 C187.69869176 125.47930533 183.25224605 128.66172195 178.3046875 131.71875 C172.22993936 134.0739715 166.3373845 133.01774461 160 132 C159.34895833 130.07942708 158.69791667 128.15885417 158.046875 126.23828125 C155.52374009 120.84366817 151.58376205 117.74155469 146.6171875 114.69921875 C146.00245575 114.31376389 145.387724 113.92830902 144.75436401 113.53117371 C138.28586777 109.49989291 131.71570499 105.63979355 125.125 101.8125 C123.85400063 101.07124817 122.58317064 100.32970583 121.3125 99.58789062 C118.1353352 97.73391762 114.95622562 95.88331061 111.77648926 94.03375244 C108.14274958 91.91925203 104.51208159 89.79948344 100.88085938 87.68066406 C98.95275746 86.55582901 97.02436971 85.43148376 95.09570312 84.30761719 C89.71770261 81.17312318 84.34430618 78.03093164 78.9765625 74.87890625 C66.05943808 67.2942774 53.13261175 59.72952687 40.14331055 52.26879883 C35.23570764 49.44971578 30.33826651 46.61763307 25.47265625 43.7265625 C24.61687988 43.22108887 23.76110352 42.71561523 22.87939453 42.19482422 C21.32279397 41.27381221 19.76994596 40.34640716 18.22216797 39.41064453 C10.26673291 34.72021024 2.93781372 32.46929356 -6.3125 32.5 C-7.07755859 32.47164062 -7.84261719 32.44328125 -8.63085938 32.4140625 C-19.86853305 32.37682083 -29.58272199 38.62774523 -38.9375 44.25 C-41.02856668 45.48841492 -43.11971637 46.72668966 -45.2109375 47.96484375 C-46.30631836 48.61694824 -47.40169922 49.26905273 -48.53027344 49.94091797 C-52.1689036 52.10429805 -55.82151174 54.24341647 -59.4765625 56.37890625 C-60.1027095 56.74480865 -60.72885651 57.11071106 -61.37397766 57.48770142 C-62.63848297 58.22663346 -63.90299407 58.96555559 -65.16751099 59.70446777 C-74.08155018 64.91665772 -82.97262602 70.1627176 -91.8125 75.5 C-98.01061172 79.21886703 -104.26155471 82.84936363 -110.5 86.5 C-124.38365015 94.62479261 -124.38365015 94.62479261 -138.17773438 102.90039062 C-140.31481893 104.18997112 -142.46226588 105.46155888 -144.609375 106.734375 C-161.47180083 116.56070456 -161.47180083 116.56070456 -171 133 C-180.36107505 133.79588087 -186.98519049 133.83979988 -194.8125 128.0625 C-199.13936711 123.98288244 -200.68323503 120.2569504 -201.5 114.4375 C-200.58063007 108.11683176 -198.0446553 104.46074997 -193.0625 100.6875 C-189.3401943 98.35654158 -186.536748 97.70482729 -182.1875 97.375 C-172.88205246 96.23316183 -165.93798334 90.9341319 -158.19873047 86.00146484 C-152.49062479 82.42986888 -146.67309106 79.0418744 -140.87127686 75.62542725 C-131.25886962 69.95920981 -121.67471357 64.25966113 -112.24804688 58.28808594 C-107.09826619 55.03303588 -101.8597428 51.94225374 -96.60009766 48.86865234 C-91.3565581 45.80354265 -86.14103383 42.69499955 -80.9375 39.5625 C-66.6634215 30.97724188 -52.32943002 22.49241934 -38 14 C-37.1037793 13.46877533 -37.1037793 13.46877533 -36.18945312 12.92681885 C-32.50218986 10.74137729 -28.8139457 8.55760031 -25.125 6.375 C-24.21637207 5.83689697 -23.30774414 5.29879395 -22.37158203 4.74438477 C-21.13964111 4.01626587 -21.13964111 4.01626587 -19.8828125 3.2734375 C-19.17527832 2.85497559 -18.46774414 2.43651367 -17.73876953 2.00537109 C-12.28454041 -1.14830983 -6.13692136 -1.02632647 0 0 Z " transform="translate(237,48)" style="fill: #F0F9FC;"/><path d="M0 0 C3.87187313 1.86894521 7.51540599 4.08104632 11.1875 6.3125 C12.25484375 6.94841064 13.3221875 7.58432129 14.421875 8.23950195 C17.62126 10.14878929 20.8112742 12.0729782 24 14 C25.63094499 14.97750652 27.26240441 15.95415558 28.89453125 16.9296875 C32.05814953 18.82242765 35.21745347 20.72215058 38.375 22.625 C42.69833886 25.22536117 47.03416238 27.80401329 51.375 30.375 C52.02974304 30.76280136 52.68448608 31.15060272 53.35906982 31.55015564 C54.71573843 32.35365889 56.07240754 33.15716128 57.42907715 33.96066284 C68.40247633 40.46142353 79.35263713 46.99747135 90.25 53.625 C90.8200174 53.97162689 91.39003479 54.31825378 91.97732544 54.67538452 C97.14311328 57.81774791 102.30571448 60.9653262 107.46630859 64.11621094 C120.87712074 72.30357739 134.32465727 80.4201429 147.875 88.375 C148.49591522 88.74020752 149.11683044 89.10541504 149.75656128 89.48168945 C151.52125066 90.5187687 153.28762326 91.55291102 155.0546875 92.5859375 C156.05999512 93.1742334 157.06530273 93.7625293 158.10107422 94.36865234 C166.42662177 99.05378867 173.53328853 100.38554395 183 99 C187.42474609 97.60011135 191.08665369 95.47106899 195 93 C196.23255697 92.24134861 197.4656599 91.48358375 198.69921875 90.7265625 C201.41219746 89.04903846 204.10944956 87.34872062 206.80078125 85.63671875 C210.93867672 83.01788298 215.14426578 80.52773699 219.375 78.0625 C225.22769388 74.64675484 231.0372247 71.1701247 236.8125 67.625 C243.7967321 63.33805909 250.81083192 59.10456477 257.84399414 54.8984375 C262.790755 51.93611391 267.72550377 48.95487037 272.6484375 45.953125 C284.73587972 38.58467242 296.84891948 31.28142306 309.10107422 24.18823242 C317.61611073 19.25116382 326.05027196 14.18443986 334.45385742 9.06005859 C352.78621393 -2.03876134 352.78621393 -2.03876134 360.08203125 -1.53515625 C362 -1 362 -1 364.5625 1.375 C366.81410712 7.05296579 367.12115258 12.21211842 364.82299805 17.92675781 C362.71104283 21.48712908 360.96904236 22.69517178 357.3984375 24.734375 C356.27671143 25.38583496 355.15498535 26.03729492 353.99926758 26.70849609 C352.79130196 27.38921674 351.58321018 28.06971354 350.375 28.75 C349.13931043 29.46147928 347.90453237 30.17454392 346.6706543 30.88916016 C344.23042262 32.29971473 341.78588217 33.70220625 339.33642578 35.09667969 C335.14192208 37.48950501 330.97333078 39.92424364 326.8125 42.375 C326.1426709 42.7676001 325.4728418 43.1602002 324.78271484 43.56469727 C319.64497001 46.58671397 314.59450754 49.73611712 309.55297852 52.9152832 C302.45246339 57.37639774 295.25249207 61.66889777 288.0559082 65.97265625 C279.91298724 70.8449153 271.79490675 75.75644502 263.6875 80.6875 C255.03017696 85.95206852 246.36447325 91.20153551 237.66381836 96.39428711 C232.79140376 99.30741863 227.943624 102.25839911 223.109375 105.234375 C183.89522867 129.3391004 183.89522867 129.3391004 165 127 C159.84854037 125.45747254 155.51765107 122.85178659 151 120 C149.15507226 118.86047575 147.31000866 117.72117143 145.46484375 116.58203125 C141.30675029 114.00018661 137.16595158 111.39254364 133.03125 108.7734375 C127.85996985 105.51363748 122.62302519 102.40137989 117.3125 99.375 C109.7865513 95.08060412 102.41363263 90.57536976 95.0637207 85.98706055 C87.66657964 81.38167984 80.18117245 76.9379966 72.66870117 72.52392578 C67.91515933 69.72882448 63.18440822 66.90945667 58.5 64 C52.92467589 60.53895464 47.28085333 57.20260901 41.625 53.875 C31.86973181 48.13157327 22.18081933 42.28636442 12.53125 36.3671875 C8.93028112 34.16197231 5.30808558 32.00266513 1.65625 29.8828125 C0.82577148 29.39441895 -0.00470703 28.90602539 -0.86035156 28.40283203 C-2.40181826 27.49792116 -3.95025172 26.60472593 -5.50683594 25.72607422 C-9.92461571 23.11102353 -12.27906628 21.04721606 -14 16 C-14.62072014 11.93428311 -14.64169364 8.06600427 -14 4 C-9.83779092 -0.70986817 -5.94265701 -1.76270887 0 0 Z " transform="translate(56,365)" style="fill: #020303;"/><path d="M0 0 C4.27331182 2.06194766 7.35072086 4.02608129 10 8 C10.14221065 10.60245498 10.18802932 13.09117684 10.125 15.6875 C10.11597656 16.38939453 10.10695313 17.09128906 10.09765625 17.81445312 C10.07413704 19.54311525 10.03826713 21.27160145 10 23 C8.53240234 23.03867187 8.53240234 23.03867187 7.03515625 23.078125 C-0.80678129 23.41740253 -7.1039803 24.05786591 -14 28 C-15.19073763 28.65096411 -16.38221393 29.30057795 -17.57421875 29.94921875 C-25.4540646 34.27920906 -33.17883851 38.8629165 -40.87109375 43.515625 C-44.71918013 45.83935321 -48.59148925 48.12061857 -52.46630859 50.39941406 C-62.63213042 56.37888005 -72.73095217 62.46268048 -82.80291748 68.59829712 C-90.60677322 73.35091486 -98.43530987 78.05705233 -106.3125 82.6875 C-114.64218814 87.58463686 -122.9103872 92.57520325 -131.15625 97.61206055 C-141.47292192 103.91017148 -151.83762488 110.12791427 -162.21337891 116.328125 C-164.09469082 117.45684622 -165.97189258 118.5924425 -167.84521484 119.734375 C-168.73547363 120.27578125 -169.62573242 120.8171875 -170.54296875 121.375 C-171.33082764 121.85710937 -172.11868652 122.33921875 -172.93041992 122.8359375 C-179.04807218 126.27689137 -187.16978916 125.91394886 -194 125 C-198.08527041 123.56219704 -201.40719098 121.39004393 -205 119 C-207.03527333 117.84284863 -209.0775808 116.69802254 -211.125 115.5625 C-228.29496035 105.77358779 -245.1116074 95.3483723 -261.99462891 85.07446289 C-274.83542761 77.26283427 -287.73432105 69.5512795 -300.66363525 61.88726807 C-310.3313007 56.15617546 -319.99414336 50.41780987 -329.625 44.625 C-331.92875018 43.24236062 -334.23284262 41.86029391 -336.53710938 40.47851562 C-338.31535415 39.41100469 -340.0925706 38.34178014 -341.86914062 37.27148438 C-344.86769671 35.46692347 -347.87090833 33.67032715 -350.875 31.875 C-352.25872803 31.0389624 -352.25872803 31.0389624 -353.67041016 30.18603516 C-360.73505285 25.97867705 -365.99791545 23.7169418 -374.375 23.875 C-376.24285156 23.90207031 -376.24285156 23.90207031 -378.1484375 23.9296875 C-379.55996094 23.96449219 -379.55996094 23.96449219 -381 24 C-382.05572672 12.06861235 -382.05572672 12.06861235 -379.65234375 7.359375 C-375.51426839 2.44825259 -371.73940748 0.52778424 -365.3984375 -0.3671875 C-360.35959918 0.17723871 -356.90736803 2.68745457 -352.6875 5.375 C-350.88065352 6.49290737 -349.07335534 7.61008497 -347.265625 8.7265625 C-346.37037109 9.28504883 -345.47511719 9.84353516 -344.55273438 10.41894531 C-341.04858719 12.58926447 -337.49862309 14.67500443 -333.9375 16.75 C-332.55045467 17.56324534 -331.16375223 18.37707569 -329.77734375 19.19140625 C-328.65755127 19.84906982 -328.65755127 19.84906982 -327.51513672 20.52001953 C-312.55987384 29.32013636 -297.64964843 38.19516089 -282.77856445 47.13671875 C-273.40867832 52.76584843 -264.00972206 58.34539696 -254.60778809 63.92077637 C-246.41330784 68.78041218 -238.22728059 73.65305445 -230.0625 78.5625 C-228.51435056 79.48962949 -226.96617444 80.41671444 -225.41796875 81.34375 C-222.3885991 83.15936337 -219.37323197 84.99614518 -216.36328125 86.84375 C-203.13468545 94.9097242 -191.74498373 99.17148568 -176 97 C-161.70538843 93.1782282 -148.80124908 83.59738184 -136.24267578 75.96875 C-132.53724029 73.71904124 -128.82109726 71.4876886 -125.10253906 69.25976562 C-123.49040619 68.29365931 -121.87907906 67.32620722 -120.26855469 66.35742188 C-114.36592068 62.80771968 -108.43615744 59.30577447 -102.5 55.8125 C-92.82391334 50.11311217 -83.22052848 44.2978818 -73.62866211 38.45849609 C-65.62502151 33.58701917 -57.6016814 28.75020333 -49.5625 23.9375 C-42.3481884 19.61793998 -35.15349023 15.27358919 -28.00390625 10.84765625 C-24.28773609 8.56189749 -20.55266377 6.30872486 -16.8125 4.0625 C-16.1632959 3.6720752 -15.5140918 3.28165039 -14.84521484 2.87939453 C-9.37744444 -0.39775804 -6.33646384 -1.63950463 0 0 Z " transform="translate(417,340)" style="fill: #F5FAFB;"/><path d="M0 0 C11.88061146 -0.91243096 23.14727073 7.4647672 33.00390625 13.25 C34.11435303 13.89606201 35.2247998 14.54212402 36.36889648 15.20776367 C46.32743791 21.01142221 56.20686899 26.94786873 66.078125 32.8984375 C70.74537993 35.71066878 75.42773398 38.49490525 80.12890625 41.25 C88.57850984 46.20184119 97.00729415 51.18869549 105.42382812 56.1965332 C110.99535779 59.5091853 116.57847695 62.79739285 122.203125 66.01953125 C123.70613159 66.8871106 123.70613159 66.8871106 125.23950195 67.7722168 C127.10887971 68.84961652 128.98342762 69.91811583 130.86401367 70.97583008 C136.75619484 74.3869139 141.51056474 77.58247547 143.75390625 84.3125 C144.29022388 90.74831151 143.56611438 94.05783474 139.75390625 99.3125 C136.45813393 102.15052617 133.50523101 102.82257094 129.16748047 102.74829102 C123.89412702 101.79614294 119.45056312 98.57034317 114.94140625 95.8125 C113.79581098 95.1291484 112.64922267 94.44745916 111.50170898 93.76733398 C109.10777936 92.34483067 106.72006168 90.91265966 104.33691406 89.47216797 C100.90296204 87.39806466 97.45191631 85.35389953 93.99609375 83.31640625 C86.08780408 78.65260241 78.19614843 73.96099716 70.31005859 69.25976562 C58.34256903 62.12598244 46.36147875 55.01931359 34.25390625 48.125 C33.35317383 47.60848877 32.45244141 47.09197754 31.52441406 46.55981445 C17.60773931 38.68613087 17.60773931 38.68613087 2.12890625 36.0625 C1.45472656 36.041875 0.78054687 36.02125 0.0859375 36 C-8.31388683 35.93624422 -15.47499054 39.12058941 -22.74609375 43.0625 C-23.45983154 43.44535156 -24.17356934 43.82820313 -24.90893555 44.22265625 C-35.90441962 50.20861029 -46.55304181 56.80838325 -57.24609375 63.3125 C-58.95292054 64.34745948 -60.65974872 65.3824168 -62.36688232 66.41687012 C-65.26466516 68.17284706 -68.16163855 69.93015808 -71.05859375 71.6875 C-71.6347644 72.03695679 -72.21093506 72.38641357 -72.80456543 72.74645996 C-78.86099271 76.42072351 -84.91236377 80.10264908 -90.94465637 83.81643677 C-93.45927667 85.36371932 -95.97674988 86.90632562 -98.49447632 88.44854736 C-99.68180328 89.17762144 -100.86775521 89.90894072 -102.05215454 90.64276123 C-123.22184637 103.75686453 -123.22184637 103.75686453 -131.24609375 102.3125 C-135.51969898 99.78718782 -137.52368692 96.93580253 -139.24609375 92.3125 C-139.80911544 87.05763087 -139.15837468 83.72789366 -136.24609375 79.3125 C-130.9789988 73.91556864 -124.51790137 70.27562514 -118.05859375 66.5 C-115.81198792 65.17013554 -113.56591373 63.83937263 -111.3203125 62.5078125 C-110.74087891 62.1653096 -110.16144531 61.8228067 -109.56445312 61.46992493 C-103.71806581 58.01143403 -97.91784272 54.47866116 -92.11914062 50.94100952 C-81.19741822 44.28062744 -70.22387382 37.71426659 -59.20874023 31.20922852 C-52.51394546 27.25439594 -45.83613291 23.27308404 -39.17431641 19.26293945 C-35.08418675 16.80128164 -30.98931127 14.34762225 -26.89257812 11.89697266 C-25.23880434 10.90684426 -23.5862515 9.91467035 -21.93554688 8.91943359 C-14.64335877 4.53213826 -8.49839668 1.18238563 0 0 Z " transform="translate(229.24609375,104.6875)" style="fill: #F1F9FB;"/><path d="M0 0 C8.7133947 4.9240314 17.33820067 9.96160243 25.87811279 15.18225098 C28.92137982 17.04238561 31.96887837 18.89557235 35.015625 20.75 C35.61833221 21.11708069 36.22103943 21.48416138 36.8420105 21.86236572 C42.00938475 25.00878414 47.18723097 28.13733858 52.375 31.25 C53.16414795 31.72348877 53.9532959 32.19697754 54.76635742 32.68481445 C59.87963983 35.74608687 65.01114348 38.77544954 70.14819336 41.79663086 C79.32307605 47.19395135 88.41620819 52.7013622 97.45019531 58.33129883 C103.50206412 62.09516857 109.60978136 65.74649048 115.765625 69.3371582 C120.81888011 72.2898562 125.82447111 75.31350966 130.8125 78.375 C138.80105222 83.27763714 146.82708792 88.11473548 154.87109375 92.92578125 C158.43317251 95.0569806 161.98655034 97.2019136 165.53515625 99.35546875 C166.43959473 99.90275635 167.3440332 100.45004395 168.27587891 101.01391602 C170.00780136 102.06225176 171.73803944 103.11337697 173.46630859 104.16772461 C180.40150919 108.35723635 185.43632625 110.37567788 193.5625 110.4375 C194.66561523 110.48680664 194.66561523 110.48680664 195.79101562 110.53710938 C208.17005638 110.65399302 218.97675004 102.96174416 229.25 96.8125 C230.5475834 96.04332998 231.84543772 95.27461683 233.14355469 94.50634766 C240.16940933 90.33804077 247.15325661 86.1067108 254.05273438 81.73193359 C259.89286682 78.03492667 265.81801121 74.48480644 271.75 70.9375 C280.95892328 65.43043026 290.14512774 59.88835841 299.3125 54.3125 C308.21308596 48.89959638 317.12737576 43.51084684 326.06787109 38.1640625 C330.49996776 35.51043891 334.91406122 32.83049998 339.31225586 30.12109375 C348.16120451 24.67245909 357.09815886 19.3807735 366.0625 14.125 C367.00015701 13.57472641 367.00015701 13.57472641 367.95675659 13.01333618 C373.70254865 9.64331446 379.45442972 6.28287942 385.24609375 2.9921875 C386.27561157 2.40606689 386.27561157 2.40606689 387.32592773 1.80810547 C389 1 389 1 391 1 C391.51649389 7.06880324 390.7147282 12.02971098 387 17 C383.57440345 19.69037312 379.87405695 21.76211715 376.06640625 23.84863281 C372.15282668 26.02921425 368.33560077 28.3734537 364.5 30.6875 C363.64599609 31.19877441 362.79199219 31.71004883 361.91210938 32.23681641 C355.90735452 35.8332054 349.944242 39.49210562 344 43.1875 C335.77799207 48.29640327 327.52495693 53.35247564 319.25 58.375 C318.36246536 58.91373245 318.36246536 58.91373245 317.45700073 59.46334839 C307.98089022 65.21267957 298.47593667 70.91305664 288.96435547 76.60351562 C281.35291253 81.16623346 273.79765638 85.81426194 266.26147461 90.5 C259.47384277 94.71776138 252.63985405 98.85073288 245.77392578 102.93945312 C243.94803033 104.03107023 242.12772378 105.13152443 240.30859375 106.234375 C236.55126573 108.51035438 232.78072336 110.76311184 229 113 C228.33822754 113.39251953 227.67645508 113.78503906 226.99462891 114.18945312 C201.80427291 129.03926759 201.80427291 129.03926759 188 127 C184.71304458 126.10782639 181.96440757 124.66241093 179 123 C177.86304688 122.39027344 176.72609375 121.78054688 175.5546875 121.15234375 C167.38377043 116.71146958 159.50949584 111.85179401 151.6730957 106.84985352 C138.31694375 98.3466436 124.65063469 90.34270863 111.02734375 82.27734375 C108.26809896 80.64344893 105.50900098 79.00930649 102.75 77.375 C102.06270813 76.96799866 101.37541626 76.56099731 100.66729736 76.1416626 C91.63368692 70.78932894 82.65879597 65.35803418 73.75488281 59.79174805 C65.4757718 54.63331345 57.07940002 49.67610582 48.67260742 44.72973633 C42.10008407 40.85844022 35.58506791 36.90695846 29.09765625 32.89477539 C26.26218326 31.16037234 23.40708596 29.47105232 20.53125 27.8046875 C19.69335938 27.31613281 18.85546875 26.82757813 17.9921875 26.32421875 C16.30396324 25.34250841 14.61108091 24.36877266 12.9140625 23.40234375 C7.39994059 20.1643002 2.35555459 16.96239034 0.1875 10.625 C-0.06588936 7.077549 -0.01086567 3.55669753 0 0 Z " transform="translate(36,381)" style="fill: #F4F8F8;"/><path d="M0 0 C3.85533628 2.43053809 6.04301186 5.14427369 8.06982422 9.20825195 C10.36149413 12.51434377 13.14495686 14.16027461 16.5703125 16.10546875 C17.23112823 16.49354706 17.89194397 16.88162537 18.57278442 17.28146362 C20.70876704 18.53238146 22.85405824 19.76625989 25 21 C26.46386568 21.85297153 27.92708174 22.70705891 29.38964844 23.56225586 C32.25465584 25.23541106 35.12310793 26.90236997 37.99511719 28.56347656 C42.72483091 31.30073488 47.4250985 34.08696867 52.125 36.875 C54.36717761 38.20264159 56.61550773 39.51417918 58.875 40.8125 C59.53242188 41.21210938 60.18984375 41.61171875 60.8671875 42.0234375 C67.04247563 44.45030171 74.90440764 43.76109252 81.12890625 41.7734375 C84.85093313 39.99234488 88.36566069 37.97281281 91.875 35.8125 C92.76429199 35.27044922 93.65358398 34.72839844 94.56982422 34.16992188 C99.73629562 31.00708946 104.86882892 27.79585245 109.9765625 24.5390625 C113.56031757 22.25659998 117.16158688 20.03188277 120.8359375 17.8984375 C121.93639404 17.24935425 121.93639404 17.24935425 123.05908203 16.5871582 C124.38124869 15.81138918 125.71235966 15.05054734 127.05419922 14.30932617 C131.35974912 11.74768397 133.11108652 9.131831 134.96875 4.64624023 C136.55607464 1.43438804 138.69744564 0.27906355 141.875 -1.1875 C146.25477921 -2.02841761 149.12704038 -1.56147981 153.125 0.4375 C156.82207941 3.63043221 159.46224664 6.22647382 160.2578125 11.2109375 C160.51560141 16.93385124 159.78032764 20.40648932 155.875 24.8125 C151.27543896 29.17661181 146.38058171 32.51681462 140.875 35.625 C139.35770878 36.49936842 137.84078804 37.37438002 136.32421875 38.25 C135.57188965 38.68183594 134.81956055 39.11367188 134.04443359 39.55859375 C130.90168085 41.37506664 127.7940182 43.24746249 124.6875 45.125 C118.34715175 48.9399553 111.99004116 52.7263978 105.625 56.5 C104.72628174 57.03471924 103.82756348 57.56943848 102.90161133 58.12036133 C76.39361195 73.81164114 76.39361195 73.81164114 60.375 69.9375 C49.87811641 66.44955915 40.16842 59.86477338 30.8203125 54.078125 C25.88081854 51.02318704 20.90277211 48.04838216 15.88671875 45.12109375 C14.50712326 44.31321627 13.12756621 43.50527314 11.74804688 42.69726562 C9.64653758 41.46685591 7.5436767 40.23910025 5.4362793 39.01879883 C-16.38745733 26.36732085 -16.38745733 26.36732085 -19.125 17.8125 C-19.81318963 12.98646134 -19.64500448 9.7807842 -17.3125 5.4375 C-12.27093925 -0.6123729 -7.95277092 -3.02205295 0 0 Z " transform="translate(161.125,303.1875)" style="fill: #030303;"/><path d="M0 0 C3.07022465 1.31775283 5.66777715 3.11895784 8.375 5.0625 C9.86325708 6.07555635 11.35153832 7.08857719 12.83984375 8.1015625 C13.55253418 8.59817383 14.26522461 9.09478516 14.99951172 9.60644531 C28.57553866 19.37628014 28.57553866 19.37628014 44.6015625 22.5078125 C55.46516441 20.20770135 66.31011662 12.06123223 75.20703125 5.7109375 C83.94614782 -0.51087379 83.94614782 -0.51087379 88.4375 -0.6875 C93.32873769 0.25642306 95.73573242 1.80407121 99.3125 5.1875 C101.50402994 8.84004989 101.77711299 11.89587201 101 16 C96.45301549 25.47288439 85.34243654 30.3565877 76.6105957 35.44116211 C74.69742443 36.55671316 72.79091923 37.6830564 70.88476562 38.81054688 C47.98655638 52.26989598 47.98655638 52.26989598 35 50 C29.28013167 47.97634123 24.22444845 45.05595798 19 42 C17.34066925 41.04930522 15.68132557 40.09863293 14.02174377 39.14837646 C10.98561104 37.40435952 7.96067019 35.64136713 4.9375 33.875 C4.34869049 33.53210938 3.75988098 33.18921875 3.15322876 32.8359375 C-14.22765985 22.66927117 -14.22765985 22.66927117 -17 16 C-17.47357835 11.73779488 -17.29830613 9.5539971 -15.25 5.75 C-10.62680588 0.0994294 -7.23868396 -1.04370041 0 0 Z " transform="translate(189,280)" style="fill: #030303;"/><path d="M0 0 C2.48073357 1.29345641 4.07068467 3.04768239 6.0078125 5.046875 C2.19611007 7.33987019 -1.61655137 9.63126478 -5.4296875 11.921875 C-5.99952362 12.26423187 -6.56935974 12.60658875 -7.15646362 12.95932007 C-14.10082842 17.13019232 -21.05862553 21.27561355 -28.0546875 25.359375 C-34.11086691 28.89789855 -40.06810995 32.57292746 -46.0012207 36.31347656 C-50.53514978 39.16214547 -55.11619587 41.91313426 -59.7421875 44.609375 C-67.55024281 49.16035581 -75.27379866 53.84621263 -82.9921875 58.546875 C-98.14968577 67.77393581 -98.14968577 67.77393581 -105.5546875 72.109375 C-106.18036621 72.47571045 -106.80604492 72.8420459 -107.45068359 73.21948242 C-108.80930533 74.01433491 -110.16803542 74.80900221 -111.52685547 75.60351562 C-116.45236685 78.48721768 -121.37239533 81.38010742 -126.28781128 84.28097534 C-127.49112591 84.99031772 -128.69514785 85.69846183 -129.89993286 86.40530396 C-137.70426364 90.95583436 -137.70426364 90.95583436 -145.171875 96.02734375 C-147.9921875 98.046875 -147.9921875 98.046875 -149.9921875 98.046875 C-150.80415486 94.29152598 -151.23650317 90.5018132 -151.4921875 86.671875 C-151.564375 85.79789062 -151.6365625 84.92390625 -151.7109375 84.0234375 C-150.06257046 77.19704789 -144.69665952 73.29792913 -138.94726562 69.70834351 C-135.61640057 67.70683979 -132.24445556 65.78115836 -128.8671875 63.859375 C-126.68532778 62.59539474 -124.50656528 61.32618008 -122.32775879 60.0569458 C-120.8846704 59.21696274 -119.44058291 58.37869369 -117.9954834 57.54217529 C-112.34623685 54.2704634 -106.77456016 50.88781246 -101.2421875 47.421875 C-83.51217996 36.36750263 -65.64470004 25.54639039 -47.6171875 14.984375 C-47.03106689 14.64088013 -46.44494629 14.29738525 -45.84106445 13.94348145 C-41.89737468 11.63432167 -37.94657566 9.33765783 -33.9921875 7.046875 C-33.36405151 6.68217102 -32.73591553 6.31746704 -32.08874512 5.94171143 C-30.17031301 4.82913112 -28.24957137 3.72064614 -26.328125 2.61328125 C-25.18649902 1.95400635 -24.04487305 1.29473145 -22.86865234 0.61547852 C-15.43008933 -3.44094377 -7.82548542 -2.5988697 0 0 Z " transform="translate(411.9921875,301.953125)" style="fill: #1A2F40;"/><path d="M0 0 C6.829312 3.52334531 13.37866091 7.53444346 19.9453125 11.51953125 C22.19464818 12.87480109 24.44463435 14.22899199 26.6953125 15.58203125 C27.27418213 15.93128662 27.85305176 16.28054199 28.44946289 16.64038086 C32.81087057 19.26346959 37.19764758 21.84182875 41.59375 24.40625 C53.65981212 31.44654805 65.6922408 38.51159453 77.54101562 45.91479492 C83.3443305 49.53959448 89.19281043 53.07898991 95.0703125 56.58203125 C97.52933543 58.05676316 99.98669625 59.53420153 102.44287109 61.01367188 C104.15497971 62.04394368 105.86893931 63.07114408 107.58447266 64.09570312 C110.19321394 65.65970358 112.78905414 67.24333545 115.3828125 68.83203125 C116.16994629 69.29939697 116.95708008 69.7667627 117.76806641 70.24829102 C122.63867443 73.26436637 126.3240489 76.33635624 128.9453125 81.51953125 C129.57421875 84.25 129.57421875 84.25 129.5078125 86.70703125 C129.50910156 87.52558594 129.51039063 88.34414063 129.51171875 89.1875 C128.77235494 92.23163927 127.27727871 93.50282091 124.9453125 95.51953125 C114.14762093 89.75401912 103.54865723 83.63259174 92.9453125 77.51953125 C92.22069824 77.101875 91.49608398 76.68421875 90.74951172 76.25390625 C81.52591023 70.92106029 72.44361882 65.3740168 63.3828125 59.76953125 C53.85854966 53.87860601 44.25851335 48.14428153 34.56860352 42.53051758 C27.47140797 38.41803062 20.422134 34.23352851 13.39892578 29.99609375 C9.02537299 27.35983529 4.64008945 24.74628834 0.234375 22.1640625 C-9.37780171 16.52978358 -18.9137542 10.90275682 -28.0546875 4.51953125 C-18.9116216 -2.89293759 -10.99789228 -4.87837542 0 0 Z " transform="translate(73.0546875,302.48046875)" style="fill: #1B3042;"/><path d="M0 0 C2.43426064 1.11703737 4.65796478 2.37939863 6.921875 3.80859375 C12.65465597 7.0952445 19.60565078 6.5499727 26 6 C30.7989114 4.66767065 34.86445278 2.75703148 39 0 C45.09643869 -0.57849418 48.85593162 0.39767562 54.0625 3.6875 C54.66594238 4.05182129 55.26938477 4.41614258 55.89111328 4.79150391 C60.0752237 7.34400335 64.18996576 9.91568657 68 13 C68 13.66 68 14.32 68 15 C67.07703125 15.51046875 66.1540625 16.0209375 65.203125 16.546875 C59.00205527 19.99747025 52.82837716 23.47398386 46.765625 27.1640625 C45.8900293 27.69676758 45.01443359 28.22947266 44.11230469 28.77832031 C42.40614882 29.82114829 40.70349652 30.86973621 39.00488281 31.92480469 C31.64769355 36.42136143 23.86970355 40.85170387 15 39 C5.58856526 35.00337375 -3.21506305 29.66336644 -11.90917969 24.31860352 C-13.78703855 23.16474143 -15.6704358 22.02034031 -17.5546875 20.87695312 C-26.70633181 15.29366819 -26.70633181 15.29366819 -29 13 C-26.4378513 11.39526997 -23.87529445 9.79119818 -21.3125 8.1875 C-20.59126953 7.73568359 -19.87003906 7.28386719 -19.12695312 6.81835938 C-17.71882479 5.93747544 -16.30919143 5.05899207 -14.89794922 4.18310547 C-13.32835317 3.2046822 -11.77003197 2.2081973 -10.21484375 1.20703125 C-6.82563897 -0.63999569 -3.7015198 -0.7336941 0 0 Z " transform="translate(211,220)" style="fill: #F4F9FA;"/><path d="M0 0 C0.68094727 0.38953857 1.36189453 0.77907715 2.06347656 1.18041992 C4.27483601 2.44787594 6.48108466 3.72396045 8.6875 5 C10.20680162 5.8714942 11.72633574 6.74258318 13.24609375 7.61328125 C18.07355961 10.38561439 22.88239274 13.18913626 27.6875 16 C28.60901855 16.53689453 29.53053711 17.07378906 30.47998047 17.62695312 C33.28328565 19.26384978 36.07993761 20.91157578 38.875 22.5625 C39.75510742 23.07530518 40.63521484 23.58811035 41.54199219 24.11645508 C42.34668945 24.59493896 43.15138672 25.07342285 43.98046875 25.56640625 C44.6974292 25.98865479 45.41438965 26.41090332 46.15307617 26.84594727 C46.65943604 27.22678467 47.1657959 27.60762207 47.6875 28 C47.6875 28.66 47.6875 29.32 47.6875 30 C48.40164063 30.103125 49.11578125 30.20625 49.8515625 30.3125 C53.04113881 31.08573062 55.25648852 32.30224515 58.0625 34 C59.10792969 34.62648437 60.15335937 35.25296875 61.23046875 35.8984375 C62.38292478 36.5987736 63.53526351 37.29930275 64.6875 38 C67.24836253 39.54439299 69.81179202 41.08450397 72.375 42.625 C73.02073975 43.01437744 73.66647949 43.40375488 74.33178711 43.80493164 C77.56375154 45.74875524 80.80585043 47.64490586 84.125 49.4375 C88.38629035 51.75744635 92.46240953 54.34757002 96.5625 56.9375 C101.80409336 60.24342117 107.07051807 63.38289762 112.546875 66.2890625 C117.86503593 69.18626957 123.08239809 72.25925459 128.31567383 75.30639648 C129.10997803 75.76860596 129.90428223 76.23081543 130.72265625 76.70703125 C131.4381665 77.1244458 132.15367676 77.54186035 132.89086914 77.97192383 C134.13618509 78.68452411 135.40418835 79.35834418 136.6875 80 C136.6875 80.66 136.6875 81.32 136.6875 82 C137.26725586 82.11859375 137.84701172 82.2371875 138.44433594 82.359375 C140.80725617 83.03420115 142.50103986 83.94705428 144.578125 85.25 C145.64160156 85.91515625 145.64160156 85.91515625 146.7265625 86.59375 C147.82097656 87.28984375 147.82097656 87.28984375 148.9375 88 C149.68257813 88.4640625 150.42765625 88.928125 151.1953125 89.40625 C155.24749224 91.95927167 155.24749224 91.95927167 156.6875 93 C156.6875 93.33 156.6875 93.66 156.6875 94 C149.15582741 94.76192502 144.80902774 92.3944369 138.4375 88.5625 C137.44661377 87.98483887 136.45572754 87.40717773 135.43481445 86.81201172 C126.32490835 81.46936002 117.31382002 75.95406503 108.30566406 70.44165039 C100.50135892 65.67105063 92.62927945 61.03954317 84.6875 56.5 C75.52020159 51.25674994 66.45127413 45.87612789 57.4375 40.375 C56.84878113 40.01571411 56.26006226 39.65642822 55.65350342 39.28625488 C55.06836975 38.92914429 54.48323608 38.57203369 53.88037109 38.20410156 C44.96694443 32.7653061 36.00372833 27.41695529 27 22.12890625 C23.32158803 19.96838498 19.65699898 17.78640972 16 15.58984375 C10.59009601 12.34473379 5.14950831 9.15649055 -0.3125 6 C-1.06821289 5.5565625 -1.82392578 5.113125 -2.60253906 4.65625 C-10.45677725 0.10100538 -18.85125792 -4.69539644 -28.22998047 -2.66992188 C-37.24217307 0.22919378 -45.3344421 6.04880222 -53.3125 11 C-55.61954856 12.40403398 -57.93264975 13.79794174 -60.24609375 15.19140625 C-65.00408472 18.06177367 -69.75144516 20.94890176 -74.4921875 23.84765625 C-80.63018774 27.59762464 -86.803421 31.28521171 -93 34.9375 C-93.90016846 35.46819092 -94.80033691 35.99888184 -95.7277832 36.5456543 C-99.65856511 38.85939523 -103.59363469 41.16554225 -107.53515625 43.4609375 C-117.12262073 49.05352856 -126.5763344 54.84608035 -136.01660156 60.68359375 C-145.18504255 66.33874534 -154.43382579 71.84832647 -163.71435547 77.31713867 C-171.20285357 81.73384229 -178.64537753 86.21660707 -186.0234375 90.81567383 C-190.308063 93.46803623 -193.43921019 95.14546377 -198.5 95.0625 C-199.758125 95.041875 -201.01625 95.02125 -202.3125 95 C-193.59551265 88.3005308 -183.88813888 82.89382831 -174.4375 77.3125 C-173.25252144 76.61067935 -172.06754425 75.9088564 -170.88256836 75.20703125 C-163.58950349 70.89493634 -156.2506516 66.66937661 -148.875 62.5 C-142.41543607 58.84804417 -136.153044 55.08604272 -130.078125 50.81640625 C-127.01791942 48.80652547 -123.8634989 47.06466188 -120.65478516 45.30541992 C-116.99673218 43.26668642 -113.43860969 41.07341172 -109.875 38.875 C-109.10857178 38.40489502 -108.34214355 37.93479004 -107.55249023 37.45043945 C-104.33579641 35.47716248 -101.12194247 33.49932071 -97.91015625 31.51806641 C-96.32935159 30.54304219 -94.74789356 29.56907646 -93.16577148 28.59619141 C-91.69762775 27.69336828 -90.23086252 26.78829731 -88.76586914 25.88037109 C-83.97963771 22.93889757 -79.0941606 20.23087695 -74.15258789 17.55981445 C-69.45529032 14.97999547 -64.85498555 12.24021048 -60.25 9.5 C-59.33412109 8.95730469 -58.41824219 8.41460937 -57.47460938 7.85546875 C-52.15927943 4.70313577 -46.86012929 1.52581681 -41.5793457 -1.68408203 C-27.0847886 -10.09826219 -13.91711796 -8.08352002 0 0 Z " transform="translate(253.3125,51)" style="fill: #1C2E3C;"/><path d="M0 0 C2.33820557 1.18755347 4.5481579 2.41920784 6.72265625 3.8828125 C2.29843388 7.67757234 -2.52794859 10.55329991 -7.52734375 13.5078125 C-8.41413818 14.03560303 -9.30093262 14.56339355 -10.21459961 15.10717773 C-12.89967047 16.70333653 -15.58802213 18.29382836 -18.27734375 19.8828125 C-19.03225098 20.32995605 -19.7871582 20.77709961 -20.56494141 21.23779297 C-24.72329249 23.70013697 -28.8892804 26.1490227 -33.06201172 28.58691406 C-34.6246583 29.50101237 -36.18606687 30.41722867 -37.74658203 31.33496094 C-40.29614819 32.83413495 -42.84890991 34.32773752 -45.40234375 35.8203125 C-46.57518921 36.51169312 -46.57518921 36.51169312 -47.77172852 37.21704102 C-54.3937497 41.07339873 -60.00811247 44.31777671 -67.90234375 44.1953125 C-69.53042969 44.18951172 -69.53042969 44.18951172 -71.19140625 44.18359375 C-75.71439621 43.74274536 -79.286821 41.95197244 -83.27734375 39.8828125 C-81.04899575 34.21065394 -75.88654746 31.52053901 -70.83203125 28.5546875 C-69.23488281 27.61314819 -69.23488281 27.61314819 -67.60546875 26.65258789 C-66.45448794 25.97922539 -65.30344478 25.30596947 -64.15234375 24.6328125 C-62.96201827 23.93323776 -61.77191767 23.23328026 -60.58203125 22.53295898 C-58.72598963 21.44067561 -56.86975501 20.34873336 -55.01263428 19.25828552 C-50.53058431 16.62566598 -46.06127504 13.97232582 -41.59765625 11.30859375 C-40.35826612 10.56993589 -39.118846 9.83132836 -37.87939453 9.09277344 C-36.08640031 8.02434744 -34.29386311 6.95519809 -32.50286865 5.88342285 C-30.84593942 4.89229354 -29.1866932 3.90504077 -27.52734375 2.91796875 C-26.58375 2.354729 -25.64015625 1.79148926 -24.66796875 1.21118164 C-17.75743932 -2.62870711 -7.42796223 -2.53205864 0 0 Z " transform="translate(411.27734375,237.1171875)" style="fill: #1B2F40;"/><path d="M0 0 C1.00450195 -0.03673828 1.00450195 -0.03673828 2.02929688 -0.07421875 C12.74158977 -0.13560725 21.70834398 6.80212753 30.5625 12.125 C31.71197814 12.81033452 32.86171674 13.4952324 34.01171875 14.1796875 C40.84607742 18.25518026 47.63666015 22.39913805 54.40673828 26.58056641 C56.81489485 28.06770729 59.22875885 29.54483104 61.64453125 31.01953125 C62.8052277 31.74131953 63.96541402 32.46392905 65.125 33.1875 C66.03862305 33.73954102 66.03862305 33.73954102 66.97070312 34.30273438 C68.70703125 35.39453125 68.70703125 35.39453125 71.3125 37.375 C71.3125 40.375 71.3125 40.375 69.625 42.4375 C65.1830177 46.15916084 60.9338707 46.97149962 55.22875977 46.79858398 C45.83280321 45.43383014 36.56977866 38.33088564 28.5 33.5625 C27.45247559 32.94721436 26.40495117 32.33192871 25.32568359 31.69799805 C22.31816695 29.92888426 19.31432862 28.1537448 16.3125 26.375 C15.56468262 25.93188477 14.81686523 25.48876953 14.04638672 25.03222656 C3.74218727 18.91197251 -6.46915572 12.63710102 -16.6875 6.375 C-10.96249996 1.60416663 -7.48188232 0.01399791 0 0 Z " transform="translate(61.6875,235.625)" style="fill: #1B3041;"/><path d="M0 0 C0.33 0.66 0.66 1.32 1 2 C1.721875 2.103125 2.44375 2.20625 3.1875 2.3125 C7.14065728 3.27882733 9.03190243 5.23897901 12 8 C12 8.33 12 8.66 12 9 C10.87722656 9.06058594 9.75445312 9.12117188 8.59765625 9.18359375 C1.03659035 9.60294982 -6.4838441 10.04339834 -14 11 C-14 11.66 -14 12.32 -14 13 C-13.2575 13.226875 -12.515 13.45375 -11.75 13.6875 C-7.26598085 15.82760005 -5.51972651 18.71305816 -3.6875 23.25 C-2.86374296 27.74322024 -3.24996384 31.53018988 -4 36 C-4.33 36 -4.66 36 -5 36 C-5.19916016 35.07767578 -5.19916016 35.07767578 -5.40234375 34.13671875 C-5.57894531 33.32847656 -5.75554687 32.52023437 -5.9375 31.6875 C-6.19853516 30.48673828 -6.19853516 30.48673828 -6.46484375 29.26171875 C-6.99886159 26.854599 -6.99886159 26.854599 -8 24 C-10.82048175 22.28756465 -13.9309984 21.19765916 -17 20 C-20.0864941 18.7955145 -23.04637624 17.49866745 -26 16 C-22.0457735 13.65965277 -18.08596494 11.3289215 -14.125 9 C-12.99707031 8.33226562 -11.86914062 7.66453125 -10.70703125 6.9765625 C-9.09248047 6.02910156 -9.09248047 6.02910156 -7.4453125 5.0625 C-6.45031738 4.47597656 -5.45532227 3.88945312 -4.43017578 3.28515625 C-2 2 -2 2 0 2 C0 1.34 0 0.68 0 0 Z " transform="translate(432,259)" style="fill: #1A2838;"/><path d="M0 0 C4.2314665 2.27424095 6.2932089 4.6487577 9.2109375 8.5390625 C0.9609375 8.5390625 -7.2890625 8.5390625 -15.7890625 8.5390625 C-15.7890625 9.1990625 -15.7890625 9.8590625 -15.7890625 10.5390625 C-15.1909375 10.7453125 -14.5928125 10.9515625 -13.9765625 11.1640625 C-10.89611239 13.10034543 -10.10210199 15.19081179 -8.7890625 18.5390625 C-8.6015625 21.4140625 -8.6015625 21.4140625 -8.7890625 23.5390625 C-12.75145072 23.5390625 -13.73710838 21.98767216 -16.7890625 19.5390625 C-18.86079814 18.5512839 -20.96733315 17.63337301 -23.1015625 16.7890625 C-24.17019531 16.36109375 -25.23882812 15.933125 -26.33984375 15.4921875 C-27.14808594 15.17765625 -27.95632813 14.863125 -28.7890625 14.5390625 C-26.72130842 12.47130842 -25.16100729 11.65557941 -22.5390625 10.4140625 C-19.30968758 8.88116095 -16.29251836 7.2516936 -13.33203125 5.2578125 C-4.28866026 -0.70877018 -4.28866026 -0.70877018 0 0 Z " transform="translate(435.7890625,195.4609375)" style="fill: #1C2938;"/><path d="M0 0 C6.8352222 3.86389708 13.42905913 7.8485598 19.74609375 12.51953125 C22.08751908 14.05748654 24.37144724 15.04964142 27 16 C27 16.33 27 16.66 27 17 C26.34773438 17.17015625 25.69546875 17.3403125 25.0234375 17.515625 C17.21176646 19.68169308 11.86509946 22.26370843 7 29 C6.43649866 21.11098121 8.68281304 16.47578044 13 10 C5.74 9.34 -1.52 8.68 -9 8 C-6.50611426 3.01222852 -4.79715076 2.48741151 0 0 Z " transform="translate(29,259)" style="fill: #1A2B3C;"/><path d="M0 0 C6.22385726 3.28167019 12.15065038 6.94289909 18.0625 10.75 C18.837146 11.24604736 19.61179199 11.74209473 20.40991211 12.25317383 C21.13186768 12.72134521 21.85382324 13.1895166 22.59765625 13.671875 C23.58004272 14.30754395 23.58004272 14.30754395 24.58227539 14.95605469 C25.28404907 15.47280762 25.28404907 15.47280762 26 16 C26 16.33 26 16.66 26 17 C25.27554688 17.13535156 24.55109375 17.27070313 23.8046875 17.41015625 C17.46160792 18.82254864 13.85298542 20.22834695 10.0234375 25.57421875 C9.51683594 26.27998047 9.51683594 26.27998047 9 27 C8.67 27 8.34 27 8 27 C7.68434726 21.73912107 8.2340252 18.50751449 11 14 C11.97953673 12.97994716 12.97591432 11.9753197 14 11 C13.11248047 10.90912109 13.11248047 10.90912109 12.20703125 10.81640625 C5.43880699 10.09873157 5.43880699 10.09873157 2.5 9.4375 C-2.74535338 8.51956316 -7.48983486 7.99322324 -12 11 C-10.50253294 7.11002809 -8.29577922 5.53051948 -4.875 3.25 C-3.96492188 2.63640625 -3.05484375 2.0228125 -2.1171875 1.390625 C-1.06917969 0.70226562 -1.06917969 0.70226562 0 0 Z " transform="translate(28,323)" style="fill: #1E282F;"/><path d="M0 0 C3.08682147 1.76131703 6.1063244 3.62483554 9.125 5.5 C9.93582031 5.99886719 10.74664062 6.49773437 11.58203125 7.01171875 C14.7529823 8.96670179 17.9001061 10.93340407 21 13 C20.03578125 13.43570313 19.0715625 13.87140625 18.078125 14.3203125 C16.80166991 14.92099725 15.5256509 15.5226093 14.25 16.125 C13.61578125 16.40859375 12.9815625 16.6921875 12.328125 16.984375 C7.65039163 19.22578891 5.53881532 21.47372824 3 26 C2.34 25.34 1.68 24.68 1 24 C2.68089548 17.85038239 4.59560586 13.6424695 9 9 C7.36346698 7.36346698 5.34178841 7.54206362 3.08984375 7.24609375 C2.10048828 7.11396484 1.11113281 6.98183594 0.09179688 6.84570312 C-1.46958008 6.64364258 -1.46958008 6.64364258 -3.0625 6.4375 C-4.10728516 6.29892578 -5.15207031 6.16035156 -6.22851562 6.01757812 C-8.81853644 5.67460733 -11.40901469 5.33559369 -14 5 C-6.20863671 -2.90669597 -6.20863671 -2.90669597 0 0 Z " transform="translate(34,197)" style="fill: #192936;"/><path d="M0 0 C1.09570312 0.00902344 2.19140625 0.01804687 3.3203125 0.02734375 C4.16335937 0.03894531 5.00640625 0.05054688 5.875 0.0625 C4.22045792 1.79976918 2.76896712 3.12707498 0.70703125 4.3828125 C-1.40235016 5.96571654 -1.40235016 5.96571654 -1.55078125 8.8046875 C-1.49470703 10.35542969 -1.49470703 10.35542969 -1.4375 11.9375 C-1.41300781 12.96617187 -1.38851562 13.99484375 -1.36328125 15.0546875 C-1.14564122 17.80194685 -0.73421006 20.37801339 -0.125 23.0625 C-3.59855025 22.07781053 -5.86042185 20.91308741 -8.125 18.0625 C-9.22935067 12.50943776 -8.56957605 6.66292323 -8.125 1.0625 C-5.36047967 -0.31976016 -3.0788637 -0.03275387 0 0 Z " transform="translate(44.125,362.9375)" style="fill: #192F3E;"/><path d="M0 0 C0.33 0 0.66 0 1 0 C1.11813543 10.72407184 0.87157852 21.30759925 0 32 C-2.31 32.99 -4.62 33.98 -7 35 C-6.835 34.38125 -6.67 33.7625 -6.5 33.125 C-6.05554255 30.34714096 -5.832929 27.74464672 -5.75 24.9375 C-5.72421875 24.10089844 -5.6984375 23.26429688 -5.671875 22.40234375 C-6.06751181 19.50571707 -7.17643152 18.23147195 -9 16 C-9 15.34 -9 14.68 -9 14 C-10.98 14 -12.96 14 -15 14 C-15 13.67 -15 13.34 -15 13 C-10.05 13 -5.1 13 0 13 C0 8.71 0 4.42 0 0 Z " transform="translate(427,350)" style="fill: #222F3B;"/><path d="M0 0 C0.33 0.66 0.66 1.32 1 2 C1.721875 2.103125 2.44375 2.20625 3.1875 2.3125 C7.14065728 3.27882733 9.03190243 5.23897901 12 8 C12 8.33 12 8.66 12 9 C4.41 9.33 -3.18 9.66 -11 10 C-8.49273047 4.98546093 -6.87887159 4.4394358 -2 2 C-1.34 2 -0.68 2 0 2 C0 1.34 0 0.68 0 0 Z " transform="translate(432,259)" style="fill: #1E2E3C;"/><path d="M0 0 C2.21920813 3.69868022 2.50147077 7.76250158 3 12 C2.01 12.495 2.01 12.495 1 13 C0.401875 12.2575 -0.19625 11.515 -0.8125 10.75 C-4.64418946 6.84034012 -9.89879725 5.59915112 -15 4 C-6.375 -3.1875 -6.375 -3.1875 0 0 Z " transform="translate(425,335)" style="fill: #1C2A3A;"/><path d="M0 0 C0.99 0.33 1.98 0.66 3 1 C2.67 1.66 2.34 2.32 2 3 C2.66 3.33 3.32 3.66 4 4 C1.89812468 5.31629567 -0.20631676 6.62812997 -2.3125 7.9375 C-2.90740234 8.31068359 -3.50230469 8.68386719 -4.11523438 9.06835938 C-8.25720665 11.63684498 -11.30458135 13.14254785 -16.1875 13.0625 C-18.0746875 13.0315625 -18.0746875 13.0315625 -20 13 C-16.95700799 10.65152617 -13.81059794 8.55427554 -10.5625 6.5 C-9.63566406 5.9121875 -8.70882812 5.324375 -7.75390625 4.71875 C-6.39072266 3.86796875 -6.39072266 3.86796875 -5 3 C-4.12214844 2.4121875 -3.24429688 1.824375 -2.33984375 1.21875 C-1.56769531 0.8165625 -0.79554687 0.414375 0 0 Z " transform="translate(71,133)" style="fill: #192D3B;"/><path d="M0 0 C1.98 0.66 3.96 1.32 6 2 C5.33006499 7.80610338 0.00534764 12.1327678 -4 16 C-4.66 16.66 -5.32 17.32 -6 18 C-6.45743356 11.5959301 -5.48834422 7.42348408 -2 2 C-1.34 1.34 -0.68 0.68 0 0 Z " transform="translate(42,270)" style="fill: #08192A;"/><path d="M0 0 C2.8513206 1.52070432 4.70482377 3.06806589 6.8125 5.5 C3.67510955 8.63739045 -5.55293705 7.5625 -9.75 7.5625 C-11.56255052 7.54665998 -13.37509041 7.52760015 -15.1875 7.5 C-5.35771277 -0.84042553 -5.35771277 -0.84042553 0 0 Z " transform="translate(437.1875,324.5)" style="fill: #213345;"/><path d="M0 0 C3.01851383 1.81726853 4.24911645 2.87367467 6.25 5.875 C-0.35 5.875 -6.95 5.875 -13.75 5.875 C-9.9000589 -0.5415685 -7.06144236 -3.76913001 0 0 Z " transform="translate(437.75,197.125)" style="fill: #223141;"/><path d="M0 0 C0 0.66 0 1.32 0 2 C-0.66 2 -1.32 2 -2 2 C-2 2.66 -2 3.32 -2 4 C-6.62 4 -11.24 4 -16 4 C-9.94546109 -2.39090218 -7.93067987 -3.96533994 0 0 Z " transform="translate(36,198)" style="fill: #213543;"/><path d="M0 0 C9.10714286 -0.26785714 9.10714286 -0.26785714 13 2 C11.21190303 3.17213045 9.41940875 4.33755526 7.625 5.5 C6.62726563 6.1496875 5.62953125 6.799375 4.6015625 7.46875 C2 9 2 9 0 9 C0 6.03 0 3.06 0 0 Z " transform="translate(397,180)" style="fill: #314653;"/><path d="M0 0 C1.2380014 3.57644848 0.74926071 6.33694766 0 10 C-3.29680965 9.34215037 -5.84117922 8.10579427 -8.75 6.4375 C-9.54921875 5.98246094 -10.3484375 5.52742187 -11.171875 5.05859375 C-12.07679687 4.53458984 -12.07679687 4.53458984 -13 4 C-13 3.67 -13 3.34 -13 3 C-8.71 3 -4.42 3 0 3 C0 2.01 0 1.02 0 0 Z " transform="translate(66,178)" style="fill: #253242;"/><path d="M0 0 C0 0.66 0 1.32 0 2 C-4.60376099 3.07064209 -6.71304612 2.75375386 -11 1 C-14.32322719 0.52891078 -17.65330466 0.24694063 -21 0 C-21 -0.33 -21 -0.66 -21 -1 C-4.62 -3.08 -4.62 -3.08 0 0 Z " transform="translate(248,48)" style="fill: #1B303D;"/><path d="M0 0 C4.25798325 3.6977223 6.06874776 6.41248659 7 12 C6.86427476 15.03927581 6.50324367 18.00093975 6 21 C5.67 21 5.34 21 5 21 C4.89042969 20.16855469 4.78085937 19.33710938 4.66796875 18.48046875 C4.50941406 17.39378906 4.35085938 16.30710937 4.1875 15.1875 C3.96126953 13.56908203 3.96126953 13.56908203 3.73046875 11.91796875 C2.9584267 8.83392911 2.26154709 8.06489082 0 6 C-0.1875 2.8125 -0.1875 2.8125 0 0 Z " transform="translate(422,274)" style="fill: #15202C;"/><path d="M0 0 C2.5 1.1875 2.5 1.1875 5 3 C5.3125 5.6875 5.3125 5.6875 5 8 C0.59885603 7.49701212 -1.71195019 5.91227269 -5 3 C-3.35 2.01 -1.7 1.02 0 0 Z " transform="translate(29,259)" style="fill: #1D3951;"/><path d="M0 0 C0.66 1.32 1.32 2.64 2 4 C-0.66666667 6.66666667 -3.33333333 9.33333333 -6 12 C-6.48979592 4.65306122 -6.48979592 4.65306122 -4.125 1.5 C-2 0 -2 0 0 0 Z " transform="translate(42,276)" style="fill: #182635;"/><path d="M0 0 C0 3.49763204 -0.55709756 4.09835528 -2.75 6.6875 C-3.26046875 7.31011719 -3.7709375 7.93273437 -4.296875 8.57421875 C-6 10 -6 10 -10 10 C-9.78515625 7.67578125 -9.78515625 7.67578125 -9 5 C-6.93359375 3.41796875 -6.93359375 3.41796875 -4.4375 2.1875 C-3.61121094 1.76855469 -2.78492187 1.34960938 -1.93359375 0.91796875 C-1.29550781 0.61503906 -0.65742187 0.31210938 0 0 Z " transform="translate(83,126)" style="fill: #122737;"/><path d="M0 0 C0.66 0.33 1.32 0.66 2 1 C-1.75 6.875 -1.75 6.875 -4 8 C-6.6723621 8.13415472 -9.32250488 8.04318541 -12 8 C-9.38928701 5.93318555 -6.66162161 4.06890393 -3.875 2.25 C-3.19179688 1.80140625 -2.50859375 1.3528125 -1.8046875 0.890625 C-0.91136719 0.44976562 -0.91136719 0.44976562 0 0 Z " transform="translate(63,138)" style="fill: #243845;"/><path d="M0 0 C1.98 0.66 3.96 1.32 6 2 C5.67 3.32 5.34 4.64 5 6 C7.475 6.99 7.475 6.99 10 8 C10 8.66 10 9.32 10 10 C5.69235185 8.43358249 1.93828536 6.31663844 -2 4 C-1.34 3.67 -0.68 3.34 0 3 C0 2.01 0 1.02 0 0 Z " transform="translate(270,62)" style="fill: #213643;"/><path d="M0 0 C0.33 0.66 0.66 1.32 1 2 C7.6 2.33 14.2 2.66 21 3 C21 3.33 21 3.66 21 4 C12.75 4 4.5 4 -4 4 C-4.33 4.66 -4.66 5.32 -5 6 C-4.75 4.125 -4.75 4.125 -4 2 C-1.9375 0.75 -1.9375 0.75 0 0 Z " transform="translate(424,200)" style="fill: #18212E;"/><path d="M0 0 C5.2676092 0.47887356 5.96314468 0.96314468 10 5 C6.04 4.67 2.08 4.34 -2 4 C-1.34 2.68 -0.68 1.36 0 0 Z " transform="translate(22,263)" style="fill: #162230;"/><path d="M0 0 C3.96 1.98 3.96 1.98 8 4 C7.67 4.99 7.34 5.98 7 7 C4.625 7.1875 4.625 7.1875 2 7 C0 4 0 4 0 0 Z " transform="translate(292,74)" style="fill: #162A38;"/><path d="M0 0 C3.59391114 1.33488128 6.75490696 2.96022723 10 5 C8.68 5.33 7.36 5.66 6 6 C6.66 6.66 7.32 7.32 8 8 C6.68 7.67 5.36 7.34 4 7 C4 6.34 4 5.68 4 5 C3.34 5 2.68 5 2 5 C2 4.01 2 3.02 2 2 C1.34 2 0.68 2 0 2 C0 1.34 0 0.68 0 0 Z " transform="translate(304,82)" style="fill: #192836;"/><path d="M0 0 C0 0.99 0 1.98 0 3 C-4.95 5.475 -4.95 5.475 -10 8 C-10.33 7.01 -10.66 6.02 -11 5 C-9.54462432 4.16151196 -8.08559627 3.32936066 -6.625 2.5 C-5.40683594 1.80390625 -5.40683594 1.80390625 -4.1640625 1.09375 C-2 0 -2 0 0 0 Z " transform="translate(169,78)" style="fill: #1B333F;"/><path d="M0 0 C0.99 0.33 1.98 0.66 3 1 C3.33 2.98 3.66 4.96 4 7 C1.03 5.35 -1.94 3.7 -5 2 C-3.68 1.67 -2.36 1.34 -1 1 C-0.67 0.67 -0.34 0.34 0 0 Z " transform="translate(289,73)" style="fill: #233641;"/><path d="M0 0 C3.96 0 7.92 0 12 0 C9 3 9 3 6 4 C6 3.34 6 2.68 6 2 C4.02 2 2.04 2 0 2 C0 1.34 0 0.68 0 0 Z " transform="translate(38,363)" style="fill: #3B4750;"/><path d="M0 0 C4.75 1.875 4.75 1.875 7 3 C7 3.66 7 4.32 7 5 C4.03 5 1.06 5 -2 5 C-1.34 4.67 -0.68 4.34 0 4 C0 2.68 0 1.36 0 0 Z " transform="translate(34,263)" style="fill: #193148;"/><path d="M0 0 C1.24546405 2.49092811 0.7767578 3.41080733 0 6 C-2.64 6 -5.28 6 -8 6 C-5.51047079 3.33264727 -3.36591866 1.44253657 0 0 Z " transform="translate(130,98)" style="fill: #162B37;"/><path d="M0 0 C-0.99 1.485 -0.99 1.485 -2 3 C-6.29 2.67 -10.58 2.34 -15 2 C-15 1.67 -15 1.34 -15 1 C-9.9752761 0.37470103 -5.07471573 -0.13012092 0 0 Z " transform="translate(242,46)" style="fill: #465C6A;"/><path d="M0 0 C1.98 0 3.96 0 6 0 C6 0.66 6 1.32 6 2 C4.02 2.99 2.04 3.98 0 5 C-0.66 4.01 -1.32 3.02 -2 2 C-1.34 2 -0.68 2 0 2 C0 1.34 0 0.68 0 0 Z " transform="translate(178,70)" style="fill: #203744;"/><path d="M0 0 C0.99 0.33 1.98 0.66 3 1 C2.67 2.65 2.34 4.3 2 6 C1.01 6 0.02 6 -1 6 C-0.67 4.02 -0.34 2.04 0 0 Z " transform="translate(199,389)" style="fill: #2D3E4E;"/><path d="M0 0 C0.2475 0.639375 0.495 1.27875 0.75 1.9375 C1.81562433 4.18741541 1.81562433 4.18741541 4.125 4.75 C4.74375 4.8325 5.3625 4.915 6 5 C2.25 8 2.25 8 0 8 C0 5.36 0 2.72 0 0 Z " transform="translate(397,181)" style="fill: #192932;"/><path d="M0 0 C0.66 0.33 1.32 0.66 2 1 C0.8125 3 0.8125 3 -1 5 C-3.6875 5.25 -3.6875 5.25 -6 5 C-2.25 1.125 -2.25 1.125 0 0 Z " transform="translate(138,93)" style="fill: #142838;"/><path d="M0 0 C0.66 0.66 1.32 1.32 2 2 C1.625 4.125 1.625 4.125 1 6 C-0.32 5.67 -1.64 5.34 -3 5 C-1.125 1.125 -1.125 1.125 0 0 Z " transform="translate(331,272)" style="fill: #15212A;"/><path d="M0 0 C0.33 0.66 0.66 1.32 1 2 C1.66 2.33 2.32 2.66 3 3 C1.02 3.99 -0.96 4.98 -3 6 C-2.42655063 3.13275314 -2.1385485 2.1385485 0 0 Z " transform="translate(72,134)" style="fill: #1C3443;"/><path d="M0 0 C0.99 0.33 1.98 0.66 3 1 C3 1.66 3 2.32 3 3 C1.02 3.99 -0.96 4.98 -3 6 C-3 4.35 -3 2.7 -3 1 C-2.01 1 -1.02 1 0 1 C0 0.67 0 0.34 0 0 Z " transform="translate(154,85)" style="fill: #1B3142;"/><path d="M0 0 C3.3 0 6.6 0 10 0 C9.34 1.32 8.68 2.64 8 4 C7.34 3.67 6.68 3.34 6 3 C6 2.34 6 1.68 6 1 C4.02 1 2.04 1 0 1 C0 0.67 0 0.34 0 0 Z " transform="translate(412,363)" style="fill: #364249;"/><path d="M0 0 C0.66 0.33 1.32 0.66 2 1 C1.54625 1.433125 1.0925 1.86625 0.625 2.3125 C-1.20024334 4.10798342 -1.20024334 4.10798342 -3 7 C-3.99 6.01 -4.98 5.02 -6 4 C-4.02 2.68 -2.04 1.36 0 0 Z " transform="translate(51,302)" style="fill: #334651;"/></svg>