<?xml version="1.0" standalone="no"?>
<!DOCTYPE svg PUBLIC "-//W3C//DTD SVG 20010904//EN"
 "http://www.w3.org/TR/2001/REC-SVG-20010904/DTD/svg10.dtd">
<svg version="1.0" xmlns="http://www.w3.org/2000/svg"
 width="1024.000000pt" height="1024.000000pt" viewBox="0 0 1024.000000 1024.000000"
 preserveAspectRatio="xMidYMid meet">
<metadata>
Created by potrace 1.15, written by Peter Selinger 2001-2017
</metadata>
<g transform="translate(0.000000,1024.000000) scale(0.100000,-0.100000)"
fill="#000000" stroke="none">
<path d="M5041 8279 c-25 -5 -77 -24 -115 -42 -78 -37 -415 -233 -791 -459
-132 -79 -292 -175 -355 -212 -63 -37 -189 -112 -280 -167 -91 -54 -224 -133
-296 -174 -72 -41 -150 -94 -173 -117 -98 -97 -137 -260 -91 -380 22 -61 97
-152 144 -177 32 -18 33 -25 1 -39 -48 -22 -112 -92 -139 -151 -71 -159 -26
-338 112 -441 l53 -39 -39 -20 c-54 -28 -117 -102 -139 -164 -12 -34 -18 -81
-18 -137 0 -71 4 -94 26 -141 26 -55 91 -130 138 -160 l24 -15 -46 -27 c-53
-31 -86 -71 -119 -143 -22 -47 -23 -60 -23 -290 l0 -240 38 -77 c47 -96 108
-158 217 -222 133 -78 837 -503 1225 -740 280 -172 528 -313 578 -331 59 -21
181 -28 252 -15 33 6 96 28 140 49 81 39 412 236 925 550 157 96 420 256 585
355 334 200 381 238 435 352 29 61 34 83 42 199 24 327 -14 479 -137 552 l-45
26 49 38 c94 75 135 157 135 275 0 116 -23 176 -94 247 -32 31 -69 60 -84 64
-14 3 -26 9 -26 13 0 3 20 19 45 34 53 34 97 82 127 140 31 59 38 208 13 275
-26 67 -76 133 -129 166 -25 16 -46 32 -46 36 0 4 12 13 26 21 47 25 122 116
144 177 31 81 26 195 -12 272 -55 113 -45 106 -848 580 -245 144 -503 297
-575 340 -526 312 -581 341 -680 359 -67 13 -111 13 -174 0z m214 -310 c33
-17 110 -61 170 -96 116 -69 727 -433 1030 -613 356 -212 393 -232 432 -232
73 0 175 -73 194 -138 24 -79 -10 -140 -107 -194 -47 -26 -79 -31 -145 -20
-32 5 -38 11 -48 45 -23 77 -64 107 -476 347 -104 60 -372 216 -595 346 -223
130 -427 243 -454 251 -71 21 -191 19 -260 -5 -64 -22 -213 -108 -1111 -639
-305 -181 -371 -232 -393 -308 l-13 -43 -57 -1 c-79 -2 -80 -2 -145 38 -82 50
-115 123 -88 196 23 60 129 128 186 120 40 -6 66 9 645 362 102 62 354 213
560 335 206 123 390 232 408 243 91 54 171 56 267 6z m22 -582 c37 -19 241
-137 453 -262 212 -126 468 -278 569 -337 102 -60 191 -114 199 -121 22 -17
52 -87 52 -120 0 -43 -29 -97 -64 -119 -61 -38 -81 -29 -507 222 -437 259
-558 329 -669 386 -73 38 -78 39 -180 39 -146 0 -123 12 -814 -408 -371 -224
-431 -257 -472 -257 -47 0 -90 33 -109 84 -16 40 -16 52 -5 89 7 24 28 57 49
77 21 19 233 152 472 294 239 143 484 290 544 327 125 75 221 126 262 139 53
18 147 3 220 -33z m-23 -594 c49 -25 261 -150 745 -441 123 -74 244 -142 267
-153 76 -32 151 -40 225 -25 76 16 116 36 283 135 66 39 123 71 127 71 5 0 32
-9 61 -20 62 -23 123 -78 131 -118 9 -45 -9 -102 -44 -138 -38 -40 -59 -42
-99 -13 -36 27 -158 38 -214 19 -44 -14 -579 -330 -612 -361 -32 -30 -47 -81
-42 -144 8 -101 88 -163 218 -173 87 -6 123 10 384 171 119 74 199 117 216
117 45 0 146 -57 171 -96 30 -50 23 -123 -16 -164 -39 -40 -60 -45 -91 -21
-14 11 -51 25 -82 32 -105 21 -124 12 -642 -300 -511 -307 -748 -455 -774
-481 -33 -32 -45 -101 -28 -162 l10 -37 -81 -48 c-117 -69 -152 -82 -232 -82
-78 -1 -130 19 -261 101 l-71 44 18 23 c25 31 25 95 -1 136 -11 18 -38 45 -61
60 -111 73 -1142 692 -1209 725 -78 39 -184 33 -245 -15 l-31 -23 -32 25 c-98
76 -78 199 41 258 30 14 63 27 73 27 11 1 107 -51 214 -114 258 -152 292 -169
362 -176 140 -12 275 107 253 225 -14 77 -23 84 -308 257 -341 206 -347 209
-446 205 -63 -3 -85 -9 -118 -31 l-40 -26 -32 25 c-89 70 -81 181 16 243 95
61 96 61 240 -23 182 -106 223 -125 289 -136 121 -19 184 4 429 154 197 120
623 377 725 436 130 75 212 84 314 32z m1768 -1734 c56 -28 68 -53 68 -135 l0
-71 -83 -5 c-100 -7 -103 -8 -437 -206 -245 -145 -381 -226 -950 -570 -400
-242 -379 -230 -439 -242 -107 -20 -105 -21 -731 357 -509 307 -1028 617
-1069 638 -24 12 -60 18 -118 19 l-83 1 0 58 c0 32 7 71 15 87 21 42 78 81
125 87 36 5 50 -1 143 -57 56 -35 167 -101 247 -148 80 -47 285 -168 455 -270
171 -102 409 -244 530 -317 121 -72 236 -138 255 -147 62 -29 127 -40 212 -36
68 3 95 9 150 35 70 33 514 295 1203 712 440 266 416 255 507 210z m-3187
-785 c77 -45 253 -150 390 -234 138 -84 309 -188 380 -230 72 -42 166 -99 210
-127 44 -27 109 -65 145 -84 62 -32 70 -34 170 -34 l105 0 87 47 c48 26 225
131 395 234 169 103 376 227 458 277 83 49 245 147 360 217 317 193 485 291
523 307 l35 15 -6 -51 c-10 -86 -27 -104 -197 -205 -85 -51 -371 -225 -635
-386 -960 -586 -991 -603 -1098 -616 -86 -10 -145 14 -369 149 -112 68 -430
260 -708 427 -278 168 -583 352 -679 410 -96 58 -183 117 -193 131 -12 16 -22
50 -25 88 l-6 62 259 -157 c142 -87 322 -194 399 -240z"/>
<path d="M4798 6522 c-100 -53 -408 -246 -450 -281 -22 -19 -51 -58 -64 -85
-21 -44 -24 -66 -24 -169 0 -128 10 -166 53 -206 39 -36 111 -40 157 -9 42 29
60 61 60 112 0 30 3 37 15 32 8 -3 92 -52 187 -109 281 -170 286 -172 393
-172 85 0 96 2 165 37 41 20 154 85 250 143 96 57 178 105 181 105 4 0 9 -21
13 -47 15 -105 106 -153 196 -102 61 35 69 58 71 211 1 126 0 137 -25 185 -34
69 -68 95 -296 230 -287 170 -307 175 -431 113 -93 -47 -130 -48 -219 -5 -106
52 -159 55 -232 17z m185 -274 c55 -29 71 -33 142 -33 70 0 89 4 149 33 37 17
77 32 88 32 36 0 263 -130 248 -142 -27 -23 -375 -221 -409 -233 -88 -31 -129
-17 -374 129 -215 127 -209 104 -54 194 52 29 104 52 120 52 15 0 56 -15 90
-32z"/>
<path d="M4602 5660 c-69 -43 -78 -136 -19 -195 35 -34 342 -220 433 -262 48
-22 66 -25 128 -21 83 6 122 23 351 160 161 96 189 118 211 160 40 77 -10 165
-99 175 -44 5 -52 2 -144 -59 -266 -175 -316 -192 -420 -143 -58 27 -177 97
-267 158 -73 49 -126 58 -174 27z"/>
<path d="M4320 5443 c-100 -52 -107 -181 -14 -262 37 -32 558 -347 655 -397
102 -51 228 -51 344 1 87 39 638 373 677 411 101 97 29 277 -105 260 -53 -6
-86 -31 -108 -81 -18 -40 -34 -52 -251 -185 -317 -194 -349 -207 -448 -173
-30 10 -168 86 -306 168 -228 136 -253 153 -270 189 -34 72 -109 102 -174 69z"/>
<path d="M2836 2679 c-48 -38 -22 -119 39 -119 31 0 75 41 75 70 0 26 -43 70
-68 70 -11 0 -31 -9 -46 -21z"/>
<path d="M6450 2416 l0 -276 46 0 c37 0 47 4 51 20 7 24 11 25 36 3 30 -28
133 -25 175 5 104 75 100 257 -7 329 -40 27 -104 30 -156 9 l-34 -15 -3 97 -3
97 -52 3 -53 3 0 -275z m254 -27 c15 -17 26 -43 26 -59 0 -38 -37 -78 -77 -86
-28 -6 -38 -1 -68 29 -43 43 -45 74 -6 116 40 43 89 43 125 0z"/>
<path d="M2380 2410 l0 -270 188 2 187 3 3 53 3 52 -135 0 -136 0 0 215 0 215
-55 0 -55 0 0 -270z"/>
<path d="M4271 2668 c0 -7 42 -128 92 -268 l92 -255 46 -3 45 -3 47 144 c26
79 47 149 47 156 0 39 22 -8 66 -141 l50 -153 50 0 49 0 86 260 c47 143 83
264 79 268 -4 5 -31 7 -61 5 l-54 -3 -22 -70 c-12 -38 -35 -113 -50 -165 l-29
-95 -52 163 -53 162 -49 0 -49 0 -35 -112 c-19 -62 -40 -132 -47 -155 -7 -24
-15 -43 -18 -43 -3 0 -29 71 -56 158 l-51 157 -62 3 c-46 2 -62 0 -61 -10z"/>
<path d="M5533 2617 c-51 -19 -53 -21 -53 -58 0 -37 -2 -39 -30 -39 -29 0 -30
-1 -30 -50 0 -47 2 -50 25 -50 24 0 25 -2 25 -67 0 -91 15 -140 55 -180 29
-29 39 -33 88 -33 73 0 118 10 110 23 -4 6 -9 27 -13 47 l-6 35 -51 -3 c-64
-5 -73 8 -73 107 l0 71 50 0 50 0 0 50 0 50 -45 0 -44 0 -3 59 -3 58 -52 -20z"/>
<path d="M2820 2331 l0 -191 55 0 55 0 -2 188 -3 187 -52 3 -53 3 0 -190z"/>
<path d="M3095 2501 c-103 -62 -131 -197 -64 -296 46 -66 144 -87 213 -47 36
21 36 21 36 1 0 -18 6 -20 53 -17 l52 3 0 185 0 185 -47 3 c-43 3 -48 1 -48
-17 l0 -21 -32 20 c-43 26 -122 27 -163 1z m162 -113 c26 -24 31 -82 10 -109
-36 -47 -97 -51 -138 -10 -83 84 42 200 128 119z"/>
<path d="M3472 2333 l3 -188 53 -3 52 -3 0 111 c0 104 1 112 25 135 29 30 55
32 85 7 20 -16 23 -29 28 -135 l5 -117 48 0 49 0 2 63 c4 152 6 168 23 187 23
25 67 26 88 2 13 -14 17 -44 19 -132 l3 -115 53 -3 52 -3 0 132 c0 150 -15
200 -69 232 -43 25 -111 22 -155 -8 l-36 -24 -36 24 c-24 16 -51 25 -76 25
-40 0 -97 -26 -99 -45 -1 -5 -4 1 -8 15 -6 22 -13 25 -59 28 l-52 3 2 -188z"/>
<path d="M5095 2508 c-96 -53 -136 -178 -87 -275 42 -82 119 -116 202 -88 27
9 51 22 54 28 2 7 5 2 5 -11 1 -21 5 -23 54 -20 l52 3 3 188 2 187 -34 0 c-44
0 -66 -9 -66 -26 0 -10 -8 -9 -32 6 -37 22 -120 27 -153 8z m134 -103 c40 -20
57 -66 41 -105 -16 -38 -46 -60 -83 -60 -41 0 -67 17 -83 55 -16 38 -8 70 22
96 36 31 63 35 103 14z"/>
<path d="M5842 2499 c-104 -52 -136 -180 -71 -285 42 -69 174 -96 264 -55 41
18 77 51 56 51 -6 0 -23 14 -38 30 -25 28 -28 29 -44 14 -10 -9 -37 -19 -61
-21 -34 -4 -49 0 -70 17 -16 12 -28 26 -28 31 0 5 57 9 130 9 l130 0 0 46 c0
63 -40 135 -90 163 -50 28 -121 28 -178 0z m119 -79 c12 0 49 -37 49 -50 0 -6
-35 -10 -85 -10 -47 0 -85 3 -85 8 2 29 66 66 98 56 8 -2 18 -4 23 -4z"/>
<path d="M6180 2330 l0 -190 50 0 50 0 0 83 c0 117 13 155 57 174 20 8 44 12
55 10 16 -5 18 1 18 54 0 58 -1 59 -28 59 -15 0 -44 -11 -65 -25 -34 -24 -37
-24 -37 -7 0 14 -9 21 -31 26 -74 14 -69 27 -69 -184z"/>
<path d="M6877 2513 c-4 -3 -7 -56 -7 -117 1 -156 22 -206 102 -247 49 -25
104 -24 158 4 77 39 84 57 88 223 l4 145 -54 -3 -53 -3 -3 -120 c-3 -131 -12
-155 -62 -155 -52 0 -65 29 -68 161 l-4 119 -47 0 c-26 0 -51 -3 -54 -7z"/>
<path d="M7285 2458 c-3 -35 -5 -119 -3 -188 l3 -125 53 -3 52 -3 1 88 c1 48
4 99 8 112 9 32 53 64 88 64 28 0 28 1 25 59 l-4 59 -31 -6 c-18 -4 -41 -16
-53 -26 -26 -24 -32 -24 -36 4 -3 19 -10 22 -50 25 l-46 3 -7 -63z"/>
<path d="M7524 2508 c-3 -4 31 -76 75 -161 l79 -153 -69 -110 c-37 -60 -69
-112 -69 -116 0 -5 31 -8 70 -8 l69 0 129 258 c71 141 133 267 137 280 7 23 6
23 -52 19 l-58 -3 -51 -98 -51 -98 -50 97 -50 97 -53 2 c-28 0 -54 -2 -56 -6z"/>
<path d="M3362 1764 c-40 -28 -25 -65 31 -79 35 -9 43 -23 24 -43 -14 -13 -21
-14 -43 -3 -18 8 -30 9 -37 2 -7 -7 -1 -12 15 -16 95 -24 138 50 47 80 -47 16
-45 40 3 41 48 1 58 11 24 24 -35 13 -37 13 -64 -6z"/>
<path d="M3515 1755 c-52 -51 -21 -135 49 -135 43 0 74 26 82 67 5 27 1 37
-24 63 -37 37 -74 39 -107 5z m83 -11 c43 -30 20 -104 -33 -104 -51 0 -73 62
-35 100 24 24 38 25 68 4z"/>
<path d="M3748 1773 l-58 -4 0 -74 c0 -60 3 -75 15 -75 10 0 15 10 15 30 0 27
3 30 30 30 20 0 30 5 30 15 0 10 -10 15 -30 15 -23 0 -30 4 -30 20 0 17 7 20
50 20 38 0 50 4 50 15 0 8 -3 14 -7 13 -5 -1 -34 -3 -65 -5z"/>
<path d="M3833 1767 c-3 -5 4 -11 16 -14 19 -5 21 -13 21 -69 0 -34 5 -66 10
-69 6 -4 10 20 10 64 0 64 2 71 19 71 44 0 27 18 -20 22 -28 1 -53 -1 -56 -5z"/>
<path d="M3965 1770 c-4 -6 -2 -16 3 -23 6 -7 17 -37 24 -67 17 -68 39 -73 52
-12 11 53 22 54 31 1 6 -36 27 -60 41 -47 4 5 44 142 44 154 0 3 -5 4 -12 2
-6 -2 -19 -31 -28 -64 l-17 -59 -12 45 c-20 76 -22 80 -30 75 -5 -2 -14 -26
-21 -52 -19 -69 -25 -70 -39 -9 -13 57 -24 75 -36 56z"/>
<path d="M4216 1772 c-3 -6 -19 -42 -35 -81 -21 -51 -25 -71 -16 -71 8 0 17 9
20 20 9 29 67 28 88 -2 8 -13 18 -20 22 -17 3 4 -11 42 -33 85 -21 42 -42 72
-46 66z m34 -84 c0 -5 -11 -8 -25 -8 -29 0 -29 -1 -14 37 l11 28 13 -25 c8
-14 14 -28 15 -32z"/>
<path d="M4344 1771 c-2 -2 -4 -37 -4 -78 0 -58 3 -73 15 -73 9 0 15 9 15 25
0 18 5 25 19 25 10 0 26 -11 35 -25 9 -14 21 -25 27 -25 7 0 5 10 -4 24 -14
21 -14 26 -2 36 18 15 20 64 3 78 -14 10 -96 21 -104 13z m86 -36 c17 -20 -3
-45 -36 -45 -20 0 -24 5 -24 30 0 25 4 30 24 30 13 0 29 -7 36 -15z"/>
<path d="M4510 1700 l0 -80 45 0 c25 0 45 5 45 10 0 6 -16 10 -35 10 -31 0
-35 3 -35 25 0 21 5 25 30 25 17 0 30 5 30 10 0 6 -13 10 -30 10 -23 0 -30 4
-30 20 0 16 7 20 34 20 21 0 36 6 40 15 4 12 -4 15 -44 15 l-50 0 0 -80z"/>
<path d="M4898 1761 c-73 -58 -13 -166 79 -142 23 6 29 13 31 43 3 34 2 36
-32 40 -38 4 -50 -10 -16 -19 26 -7 26 -40 1 -48 -40 -12 -79 34 -69 81 5 27
46 44 76 33 27 -10 41 -4 26 11 -21 21 -69 22 -96 1z"/>
<path d="M5054 1771 c-9 -9 -4 -151 6 -151 6 0 10 11 10 25 0 20 5 25 23 25
15 0 29 -9 37 -25 7 -14 17 -25 22 -25 12 0 10 13 -8 38 -8 12 -11 22 -5 22
20 0 34 41 23 65 -8 18 -20 24 -57 27 -26 2 -48 1 -51 -1z m90 -38 c8 -21 -18
-43 -51 -43 -19 0 -23 5 -23 30 0 27 3 30 34 30 23 0 36 -6 40 -17z"/>
<path d="M5217 1773 c-2 -5 -2 -14 -1 -20 1 -7 2 -41 3 -75 2 -45 5 -57 11
-43 20 46 7 178 -13 138z"/>
<path d="M5296 1770 c-3 -8 -4 -44 -3 -79 3 -81 24 -97 29 -21 l3 51 40 -51
c22 -27 44 -49 50 -47 14 5 20 147 6 147 -7 0 -11 -23 -11 -57 -1 -65 8 -69
-72 27 -27 32 -38 41 -42 30z"/>
<path d="M5880 1700 l0 -80 55 0 c30 0 55 5 55 10 0 6 -20 10 -45 10 -41 0
-45 2 -45 25 0 23 4 25 43 25 34 1 38 3 24 11 -9 6 -27 9 -40 7 -18 -2 -22 2
-22 22 0 22 5 25 43 28 61 5 52 22 -13 22 l-55 0 0 -80z"/>
<path d="M6074 1766 c-76 -34 -52 -146 30 -146 56 0 66 8 66 52 0 38 -1 39
-32 36 -35 -3 -52 -28 -19 -28 14 0 21 -6 21 -20 0 -16 -7 -20 -33 -20 -39 0
-57 15 -57 48 0 53 47 85 91 61 22 -11 39 -4 23 10 -17 18 -59 21 -90 7z"/>
<path d="M6429 1773 c0 -4 0 -33 0 -63 l1 -55 -53 58 c-52 55 -86 74 -73 41 3
-9 6 -42 6 -75 0 -33 4 -59 10 -59 6 0 10 24 10 53 l0 52 53 -58 c28 -32 55
-55 60 -51 11 11 9 152 -3 159 -5 3 -10 3 -11 -2z"/>
<path d="M6810 1700 c0 -64 3 -80 15 -80 9 0 15 9 15 25 0 31 35 35 45 6 7
-22 33 -46 41 -38 3 3 -2 17 -12 32 -17 25 -17 28 -1 37 10 5 17 21 17 38 0
37 -32 60 -82 60 l-38 0 0 -80z m86 46 c15 -12 17 -18 8 -33 -13 -22 -74 -31
-74 -11 1 54 27 72 66 44z"/>
<path d="M4720 1695 l0 -75 55 0 c30 0 55 5 55 10 0 6 -20 10 -45 10 -41 0
-45 2 -45 25 0 22 4 25 35 25 19 0 35 5 35 10 0 6 -16 10 -35 10 -28 0 -35 4
-35 20 0 17 7 20 39 20 22 0 43 5 46 10 4 6 -15 10 -49 10 l-56 0 0 -75z"/>
<path d="M5470 1695 l0 -75 55 0 c30 0 55 5 55 10 0 6 -18 10 -40 10 -33 0
-40 3 -40 19 0 15 8 21 33 23 17 2 32 8 32 13 0 6 -15 11 -32 13 -25 2 -33 8
-33 23 0 16 7 19 40 19 22 0 40 5 40 10 0 6 -25 10 -55 10 l-55 0 0 -75z"/>
<path d="M5630 1696 c0 -41 5 -78 10 -81 6 -4 10 7 10 24 0 42 31 42 60 0 25
-35 40 -31 20 5 -11 21 -10 27 4 41 39 40 7 85 -60 85 l-44 0 0 -74z m90 39
c18 -21 -4 -45 -41 -45 -26 0 -29 4 -29 30 0 26 3 30 29 30 16 0 34 -7 41 -15z"/>
<path d="M6220 1695 c0 -60 3 -75 15 -75 12 0 15 15 15 75 0 60 -3 75 -15 75
-12 0 -15 -15 -15 -75z"/>
<path d="M6500 1695 l0 -75 56 0 c34 0 53 4 49 10 -3 6 -24 10 -46 10 -35 0
-39 3 -39 25 0 22 4 25 34 25 19 0 38 5 41 10 4 6 -10 10 -35 10 -37 0 -41 2
-38 23 2 18 11 23 48 28 l45 6 -57 1 -58 2 0 -75z"/>
<path d="M6650 1695 l0 -75 55 0 c30 0 55 5 55 10 0 6 -18 10 -40 10 -36 0
-40 3 -40 25 0 22 4 25 35 25 19 0 35 5 35 10 0 6 -16 10 -35 10 -30 0 -35 3
-35 24 0 22 5 25 48 29 42 3 41 4 -15 5 l-63 2 0 -75z"/>
</g>
</svg>
